<!DOCTYPE svg PUBLIC "-//W3C//DTD SVG 1.1//EN" "http://www.w3.org/Graphics/SVG/1.1/DTD/svg11.dtd">
<svg xmlns="http://www.w3.org/2000/svg" version="1.1" width="4.5050002cm" height="3.0050002cm" viewBox="0 0 17736 11830">
            <title>Picture generated by PcbDraw </title>
            <desc>Picture generated by PcbDraw</desc>
        <g transform="translate(-53140, -23613)" id="boardContainer"><g clip-path="url(#cut-off)" mask="url(#hole-mask)"><defs><clipPath id="cut-off"><path d=" M 53149.0 23622.0 L 70866.0 23622.0 L 70866.0 35433.0 L 55118.0 35433.0 L 53149.0 35433.0 L 53149.0 23622.0 " style="fill-rule: evenodd;"/></clipPath></defs><g id="substrate-board" style="fill:#285e3a; stroke:#285e3a;"><path d=" M 53149.0 23622.0 L 70866.0 23622.0 L 70866.0 35433.0 L 55118.0 35433.0 L 53149.0 35433.0 L 53149.0 23622.0 " style="fill-rule: evenodd;"/><g style="fill:#000000; stroke: #000000;"><g style="fill-opacity:1; stroke-opacity:1; stroke-linecap:round; stroke-linejoin:round;" transform="translate(0 0) scale(1 1)">
</g>
<g style="fill-opacity:0.0; stroke-width:-0.000393701; stroke-opacity:1; stroke-linecap:round; stroke-linejoin:round;">
</g>
<g style="fill-opacity:0.0; stroke-width:19.685; stroke-opacity:1; stroke-linecap:round; stroke-linejoin:round;">
<path d="M53149 35433 L53149 23622 "/>
<path d="M55118 35433 L53149 35433 "/>
<path d="M70866 35433 L55118 35433 "/>
<path d="M70866 23622 L70866 35433 "/>
<path d="M53149 23622 L70866 23622 "/>
<g>
</g>
<g>
</g>
<g>
</g>
<g>
</g>
<g>
</g>
</g> 
</g></g><g id="substrate-clad" style="fill:#9c6b28; stroke:#9c6b28;"><g style="fill-opacity:1; stroke-opacity:1; stroke-linecap:round; stroke-linejoin:round;" transform="translate(0 0) scale(1 1)">
</g>
<g style="fill-opacity:0.0; stroke-width:-0.000393701; stroke-opacity:1; stroke-linecap:round; stroke-linejoin:round;">
</g>
<g style="fill-opacity:1.0; stroke-width:0; stroke-opacity:1; stroke-linecap:round; stroke-linejoin:round;">
<path style="fill-opacity:1.0; stroke-width:0; stroke-opacity:1; stroke-linecap:round; stroke-linejoin:round;fill-rule:evenodd;" d="M 68030.8,32412.5 68177.8,32473.4 68177.8,32473.4 68310,32561.8 68422.5,32674.2 68507.2,32801 68510.9,32806.5 68571.7,32953.4 68602.8,33109.4 68602.8,33268.5 68571.7,33424.5 68510.9,33571.5 68510.9,33571.5 68422.5,33703.7 68310,33816.2 68177.8,33904.6 68177.8,33904.6 68177.8,33904.6 68030.8,33965.4 67874.8,33996.5 67715.7,33996.5 67559.7,33965.4 67412.8,33904.6 67412.8,33904.6 67412.8,33904.6 67280.5,33816.2 67168.1,33703.7 67079.7,33571.5 67079.7,33571.5 67018.8,33424.5 66987.8,33268.5 66987.8,33109.4 67018.8,32953.4 67079.7,32806.5 67083.4,32801 67168.1,32674.2 67280.5,32561.8 67412.8,32473.4 67412.8,32473.4 67559.7,32412.5 67715.7,32381.5 67874.8,32381.5 Z"/> 
<path style="fill-opacity:1.0; stroke-width:0; stroke-opacity:1; stroke-linecap:round; stroke-linejoin:round;fill-rule:evenodd;" d="M 62852.3,32439.8 62933.4,32473.4 62942,32476.9 63022.6,32530.8 63091.2,32599.4 63144.8,32679.6 63145.1,32680.1 63182.3,32769.7 63201.2,32864.9 63201.2,32961.9 63182.3,33057 63160.6,33109.4 63145.1,33146.7 63091.2,33227.3 63022.6,33296 62942,33349.9 62942,33349.9 62942,33349.9 62852.3,33387 62757.2,33405.9 62660.2,33405.9 62565,33387 62475.4,33349.9 62475.4,33349.9 62475.4,33349.9 62394.7,33296 62326.1,33227.3 62272.2,33146.7 62256.8,33109.4 62235.1,33057 62216.1,32961.9 62216.1,32864.9 62235.1,32769.7 62272.2,32680.1 62272.5,32679.6 62326.1,32599.4 62394.7,32530.8 62475.4,32476.9 62483.9,32473.4 62565,32439.8 62660.2,32420.9 62757.2,32420.9 Z"/> 
<path style="fill-opacity:1.0; stroke-width:0; stroke-opacity:1; stroke-linecap:round; stroke-linejoin:round;fill-rule:evenodd;" d="M 60852.3,32439.8 60933.4,32473.4 60942,32476.9 61022.6,32530.8 61091.2,32599.4 61144.8,32679.6 61145.1,32680.1 61182.3,32769.7 61201.2,32864.9 61201.2,32961.9 61182.3,33057 61160.6,33109.4 61145.1,33146.7 61091.2,33227.3 61022.6,33296 60942,33349.9 60942,33349.9 60942,33349.9 60852.3,33387 60757.2,33405.9 60660.2,33405.9 60565,33387 60475.4,33349.9 60475.4,33349.9 60475.4,33349.9 60394.7,33296 60326.1,33227.3 60272.2,33146.7 60256.8,33109.4 60235.1,33057 60216.1,32961.9 60216.1,32864.9 60235.1,32769.7 60272.2,32680.1 60272.5,32679.6 60326.1,32599.4 60394.7,32530.8 60475.4,32476.9 60483.9,32473.4 60565,32439.8 60660.2,32420.9 60757.2,32420.9 Z"/> 
<path style="fill-opacity:1.0; stroke-width:0; stroke-opacity:1; stroke-linecap:round; stroke-linejoin:round;fill-rule:evenodd;" d="M 65148.6,32080.9 65216.7,32109.1 65216.7,32109.1 65278,32150.1 65330.2,32202.3 65330.2,32202.3 65371.2,32263.6 65399.4,32331.7 65413.8,32404.1 65413.8,32477.8 65399.4,32550.2 65371.2,32618.3 65371.2,32618.3 65330.2,32679.6 65278,32731.8 65247.2,32752.4 65216.7,32772.7 65148.6,32801 65076.2,32815.4 65002.5,32815.4 64930.2,32801 64862,32772.7 64831.6,32752.4 64800.7,32731.8 64748.5,32679.6 64707.6,32618.3 64707.6,32618.3 64679.3,32550.2 64665,32477.8 64665,32404.1 64679.3,32331.7 64707.6,32263.6 64748.5,32202.3 64748.5,32202.3 64800.7,32150.1 64862,32109.1 64862,32109.1 64930.2,32080.9 65002.5,32066.5 65076.2,32066.5 Z"/> 
<path style="fill-opacity:1.0; stroke-width:0; stroke-opacity:1; stroke-linecap:round; stroke-linejoin:round;fill-rule:evenodd;" d="M 65148.6,31096.7 65216.7,31124.9 65216.7,31124.9 65278,31165.9 65330.2,31218 65330.2,31218 65371.2,31279.3 65399.4,31347.5 65413.8,31419.8 65413.8,31493.6 65399.4,31565.9 65371.2,31634 65371.2,31634 65330.2,31695.4 65278,31747.5 65247.2,31768.1 65216.7,31788.5 65148.6,31816.7 65076.2,31831.1 65002.5,31831.1 64930.2,31816.7 64862,31788.5 64831.6,31768.1 64800.7,31747.5 64748.5,31695.4 64707.6,31634 64707.6,31634 64679.3,31565.9 64665,31493.6 64665,31419.8 64679.3,31347.5 64707.6,31279.3 64748.5,31218 64748.5,31218 64800.7,31165.9 64862,31124.9 64862,31124.9 64930.2,31096.7 65002.5,31082.3 65076.2,31082.3 Z"/> 
<path style="fill-opacity:1.0; stroke-width:0; stroke-opacity:1; stroke-linecap:round; stroke-linejoin:round;fill-rule:evenodd;" d="M 65148.6,30112.4 65216.7,30140.6 65216.7,30140.6 65278,30181.6 65330.2,30233.8 65330.2,30233.8 65371.2,30295.1 65399.4,30363.2 65413.8,30435.6 65413.8,30509.3 65399.4,30581.7 65371.2,30649.8 65371.2,30649.8 65330.2,30711.1 65278,30763.3 65247.2,30783.9 65216.7,30804.2 65148.6,30832.5 65076.2,30846.9 65002.5,30846.9 64930.2,30832.5 64862,30804.2 64831.6,30783.9 64800.7,30763.3 64748.5,30711.1 64707.6,30649.8 64707.6,30649.8 64679.3,30581.7 64665,30509.3 64665,30435.6 64679.3,30363.2 64707.6,30295.1 64748.5,30233.8 64748.5,30233.8 64800.7,30181.6 64862,30140.6 64862,30140.6 64930.2,30112.4 65002.5,30098 65076.2,30098 Z"/> 
<path style="fill-opacity:1.0; stroke-width:0; stroke-opacity:1; stroke-linecap:round; stroke-linejoin:round;fill-rule:evenodd;" d="M 55098.8,30728.7 53956.3,30728.7 53956.3,29586.2 55098.8,29586.2 Z"/> 
<path style="fill-opacity:1.0; stroke-width:0; stroke-opacity:1; stroke-linecap:round; stroke-linejoin:round;fill-rule:evenodd;" d="M 68030.8,28948 68177.8,29008.8 68177.8,29008.8 68310,29097.2 68422.5,29209.7 68510.9,29341.9 68571.7,29488.9 68602.8,29644.9 68602.8,29803.9 68571.7,29959.9 68555,30000.4 68510.9,30106.9 68422.5,30239.1 68310,30351.6 68177.8,30440 68177.8,30440 68177.8,30440 68030.8,30500.9 67874.8,30531.9 67715.7,30531.9 67559.7,30500.9 67412.8,30440 67412.8,30440 67412.8,30440 67280.5,30351.6 67168.1,30239.1 67079.7,30106.9 67035.6,30000.4 67018.8,29959.9 66987.8,29803.9 66987.8,29644.9 67018.8,29488.9 67079.7,29341.9 67168.1,29209.7 67280.5,29097.2 67412.8,29008.8 67412.8,29008.8 67559.7,28948 67715.7,28916.9 67874.8,28916.9 Z"/> 
<path style="fill-opacity:1.0; stroke-width:0; stroke-opacity:1; stroke-linecap:round; stroke-linejoin:round;fill-rule:evenodd;" d="M 56028.9,29292.9 56087.7,29304.6 56152.3,29331.3 56210.4,29370.1 56259.8,29419.5 56298.6,29477.6 56325.3,29542.2 56339,29610.7 56339,29680.6 56325.3,29749.1 56298.6,29813.7 56259.8,29871.8 56210.4,29921.2 56152.3,29960 56087.7,29986.8 56028.9,29998.5 56019.2,30000.4 55949.3,30000.4 55939.6,29998.5 55880.8,29986.8 55816.2,29960 55758.1,29921.2 55708.7,29871.8 55669.9,29813.7 55643.2,29749.1 55629.5,29680.6 55629.5,29610.7 55643.2,29542.2 55669.9,29477.6 55708.7,29419.5 55758.1,29370.1 55816.2,29331.3 55880.8,29304.6 55939.6,29292.9 55949.3,29290.9 56019.2,29290.9 Z"/> 
<path style="fill-opacity:1.0; stroke-width:0; stroke-opacity:1; stroke-linecap:round; stroke-linejoin:round;fill-rule:evenodd;" d="M 58012.2,27697.2 56869.7,27697.2 56869.7,26790.9 58012.2,26790.9 Z"/> 
<path style="fill-opacity:1.0; stroke-width:0; stroke-opacity:1; stroke-linecap:round; stroke-linejoin:round;fill-rule:evenodd;" d="M 56028.9,26537 56087.7,26548.7 56152.3,26575.4 56210.4,26614.2 56259.8,26663.6 56298.6,26721.7 56325.3,26786.3 56339,26854.8 56339,26924.7 56325.3,26993.2 56298.6,27057.8 56259.8,27115.9 56210.4,27165.3 56152.3,27204.1 56087.7,27230.9 56028.9,27242.5 56019.2,27244.5 55949.3,27244.5 55939.6,27242.5 55880.8,27230.9 55816.2,27204.1 55758.1,27165.3 55708.7,27115.9 55669.9,27057.8 55643.2,26993.2 55629.5,26924.7 55629.5,26854.8 55643.2,26786.3 55669.9,26721.7 55708.7,26663.6 55758.1,26614.2 55816.2,26575.4 55880.8,26548.7 55939.6,26537 55949.3,26535 56019.2,26535 Z"/> 
<path style="fill-opacity:1.0; stroke-width:0; stroke-opacity:1; stroke-linecap:round; stroke-linejoin:round;fill-rule:evenodd;" d="M 55098.8,26909.8 53956.3,26909.8 53956.3,26003.5 55098.8,26003.5 Z"/> 
<path style="fill-opacity:1.0; stroke-width:0; stroke-opacity:1; stroke-linecap:round; stroke-linejoin:round;fill-rule:evenodd;" d="M 61718.5,25195.7 61808.1,25232.8 61888.8,25286.7 61957.4,25355.3 62011.3,25436 62048.4,25525.6 62067.3,25620.8 62067.3,25717.8 62048.4,25813 62011.3,25902.6 61957.4,25983.3 61888.8,26051.9 61808.1,26105.8 61808.1,26105.8 61808.1,26105.8 61718.5,26142.9 61623.3,26161.8 61526.3,26161.8 61431.1,26142.9 61341.5,26105.8 61341.5,26105.8 61341.5,26105.8 61260.8,26051.9 61192.2,25983.3 61138.3,25902.6 61101.2,25813 61082.3,25717.8 61082.3,25620.8 61101.2,25525.6 61138.3,25436 61192.2,25355.3 61260.8,25286.7 61341.5,25232.8 61431.1,25195.7 61526.3,25176.8 61623.3,25176.8 Z"/> 
<path style="fill-opacity:1.0; stroke-width:0; stroke-opacity:1; stroke-linecap:round; stroke-linejoin:round;fill-rule:evenodd;" d="M 63718.5,25195.7 63808.1,25232.8 63888.8,25286.7 63957.4,25355.3 64011.3,25436 64048.4,25525.6 64067.3,25620.8 64067.3,25717.8 64048.4,25813 64011.3,25902.6 63957.4,25983.3 63888.8,26051.9 63808.1,26105.8 63808.1,26105.8 63808.1,26105.8 63718.5,26142.9 63623.3,26161.8 63526.3,26161.8 63431.1,26142.9 63341.5,26105.8 63341.5,26105.8 63341.5,26105.8 63260.8,26051.9 63192.2,25983.3 63138.3,25902.6 63101.2,25813 63082.3,25717.8 63082.3,25620.8 63101.2,25525.6 63138.3,25436 63192.2,25355.3 63260.8,25286.7 63341.5,25232.8 63431.1,25195.7 63526.3,25176.8 63623.3,25176.8 Z"/> 
</g> 
</g><g id="substrate-copper" style="fill:#208b47; stroke:#208b47;"><g style="fill-opacity:1; stroke-opacity:1; stroke-linecap:round; stroke-linejoin:round;" transform="translate(0 0) scale(1 1)">
</g>
<g style="fill-opacity:0.0; stroke-width:-0.000393701; stroke-opacity:1; stroke-linecap:round; stroke-linejoin:round;">
<g>
</g>
<g style="fill-opacity:1.0; stroke-width:0; stroke-opacity:1; stroke-linecap:round; stroke-linejoin:round;">
<circle cx="67795.3" cy="33189" r="787.402"/> 
</g>
<g style="fill-opacity:1.0; stroke-width:59.0551; stroke-opacity:1; stroke-linecap:round; stroke-linejoin:round;">
</g>
<g style="fill-opacity:1.0; stroke-width:0; stroke-opacity:1; stroke-linecap:round; stroke-linejoin:round;">
<circle cx="67795.3" cy="29724.4" r="787.402"/> 
</g>
<g style="fill-opacity:1.0; stroke-width:59.0551; stroke-opacity:1; stroke-linecap:round; stroke-linejoin:round;">
</g>
<g style="fill-opacity:1.0; stroke-width:0; stroke-opacity:1; stroke-linecap:round; stroke-linejoin:round;">
<circle cx="65039.4" cy="32440.9" r="354.331"/> 
</g>
<g style="fill-opacity:1.0; stroke-width:59.0551; stroke-opacity:1; stroke-linecap:round; stroke-linejoin:round;">
</g>
<g style="fill-opacity:1.0; stroke-width:0; stroke-opacity:1; stroke-linecap:round; stroke-linejoin:round;">
<circle cx="65039.4" cy="31456.7" r="354.331"/> 
</g>
<g style="fill-opacity:1.0; stroke-width:59.0551; stroke-opacity:1; stroke-linecap:round; stroke-linejoin:round;">
</g>
<g style="fill-opacity:1.0; stroke-width:0; stroke-opacity:1; stroke-linecap:round; stroke-linejoin:round;">
<circle cx="65039.4" cy="30472.4" r="354.331"/> 
</g>
<g style="fill-opacity:1.0; stroke-width:59.0551; stroke-opacity:1; stroke-linecap:round; stroke-linejoin:round;">
</g>
<g>
</g>
<g style="fill-opacity:1.0; stroke-width:59.0551; stroke-opacity:1; stroke-linecap:round; stroke-linejoin:round;">
</g>
<g style="fill-opacity:1.0; stroke-width:944.882; stroke-opacity:1; stroke-linecap:round; stroke-linejoin:round;">
</g>
<g style="fill-opacity:0.0; stroke-width:944.882; stroke-opacity:1; stroke-linecap:round; stroke-linejoin:round;">
<path d="M63574 25669 L63574 25669 "/>
</g>
<g style="fill-opacity:1.0; stroke-width:0; stroke-opacity:1; stroke-linecap:round; stroke-linejoin:round;">
<circle cx="61574.8" cy="25669.3" r="472.441"/> 
</g>
<g style="fill-opacity:1.0; stroke-width:59.0551; stroke-opacity:1; stroke-linecap:round; stroke-linejoin:round;">
</g>
<g>
</g>
<g style="fill-opacity:1.0; stroke-width:59.0551; stroke-opacity:1; stroke-linecap:round; stroke-linejoin:round;">
</g>
<g style="fill-opacity:1.0; stroke-width:944.882; stroke-opacity:1; stroke-linecap:round; stroke-linejoin:round;">
</g>
<g style="fill-opacity:0.0; stroke-width:944.882; stroke-opacity:1; stroke-linecap:round; stroke-linejoin:round;">
<path d="M62708 32913 L62708 32913 "/>
</g>
<g style="fill-opacity:1.0; stroke-width:0; stroke-opacity:1; stroke-linecap:round; stroke-linejoin:round;">
<circle cx="60708.7" cy="32913.4" r="472.441"/> 
</g>
<g style="fill-opacity:1.0; stroke-width:59.0551; stroke-opacity:1; stroke-linecap:round; stroke-linejoin:round;">
</g>
<g>
</g>
<g style="fill-opacity:1.0; stroke-width:59.0551; stroke-opacity:1; stroke-linecap:round; stroke-linejoin:round;">
</g>
<g style="fill-opacity:1.0; stroke-width:0; stroke-opacity:1; stroke-linecap:round; stroke-linejoin:round;">
<path style="fill-opacity:1.0; stroke-width:0; stroke-opacity:1; stroke-linecap:round; stroke-linejoin:round;fill-rule:evenodd;" d="M 53976.4,30708.7 53976.4,29606.3 55078.7,29606.3 55078.7,30708.7 Z"/> 
<path style="fill-opacity:1.0; stroke-width:0; stroke-opacity:1; stroke-linecap:round; stroke-linejoin:round;fill-rule:evenodd;" d="M 53976.4,26889.8 53976.4,26023.6 55078.7,26023.6 55078.7,26889.8 Z"/> 
<path style="fill-opacity:1.0; stroke-width:0; stroke-opacity:1; stroke-linecap:round; stroke-linejoin:round;fill-rule:evenodd;" d="M 56889.8,27677.2 56889.8,26811 57992.1,26811 57992.1,27677.2 Z"/> 
</g>
<g>
</g>
<g>
</g>
<g style="fill-opacity:1.0; stroke-width:0; stroke-opacity:1; stroke-linecap:round; stroke-linejoin:round;">
</g>
<g style="fill-opacity:1.0; stroke-width:98.4252; stroke-opacity:1; stroke-linecap:round; stroke-linejoin:round;">
</g>
<g style="fill-opacity:0.0; stroke-width:98.4252; stroke-opacity:1; stroke-linecap:round; stroke-linejoin:round;">
<path d="M63740 30157 L65039 31456 "/>
<path d="M54527 30157 L63740 30157 "/>
<path d="M54527 25925 L54527 26456 "/>
<path d="M54783 25669 L54527 25925 "/>
<path d="M61574 25669 L54783 25669 "/>
<path d="M64685 32086 L65039 32440 "/>
<path d="M61535 32086 L64685 32086 "/>
<path d="M60708 32913 L61535 32086 "/>
<path d="M63574 29007 L65039 30472 "/>
<path d="M63574 25669 L63574 29007 "/>
</g>
<g>
</g>
</g>
<g style="fill-opacity:0.0; stroke-width:98.4252; stroke-opacity:1; stroke-linecap:round; stroke-linejoin:round;">
</g>
<g style="fill-opacity:1.0; stroke-width:0; stroke-opacity:1; stroke-linecap:round; stroke-linejoin:round;">
<circle cx="67795.3" cy="33189" r="68.8976"/> 
</g>
<g style="fill-opacity:1.0; stroke-width:59.0551; stroke-opacity:1; stroke-linecap:round; stroke-linejoin:round;">
</g>
<g style="fill-opacity:1.0; stroke-width:0; stroke-opacity:1; stroke-linecap:round; stroke-linejoin:round;">
<circle cx="67795.3" cy="29724.4" r="68.8976"/> 
</g>
<g style="fill-opacity:1.0; stroke-width:59.0551; stroke-opacity:1; stroke-linecap:round; stroke-linejoin:round;">
</g>
<g style="fill-opacity:1.0; stroke-width:0; stroke-opacity:1; stroke-linecap:round; stroke-linejoin:round;">
<circle cx="65039.4" cy="32440.9" r="68.8976"/> 
</g>
<g style="fill-opacity:1.0; stroke-width:59.0551; stroke-opacity:1; stroke-linecap:round; stroke-linejoin:round;">
</g>
<g style="fill-opacity:1.0; stroke-width:0; stroke-opacity:1; stroke-linecap:round; stroke-linejoin:round;">
<circle cx="65039.4" cy="31456.7" r="68.8976"/> 
</g>
<g style="fill-opacity:1.0; stroke-width:59.0551; stroke-opacity:1; stroke-linecap:round; stroke-linejoin:round;">
</g>
<g style="fill-opacity:1.0; stroke-width:0; stroke-opacity:1; stroke-linecap:round; stroke-linejoin:round;">
<circle cx="65039.4" cy="30472.4" r="68.8976"/> 
</g>
<g style="fill-opacity:1.0; stroke-width:59.0551; stroke-opacity:1; stroke-linecap:round; stroke-linejoin:round;">
</g>
<g style="fill-opacity:1.0; stroke-width:0; stroke-opacity:1; stroke-linecap:round; stroke-linejoin:round;">
<circle cx="63574.8" cy="25669.3" r="68.8976"/> 
</g>
<g style="fill-opacity:1.0; stroke-width:59.0551; stroke-opacity:1; stroke-linecap:round; stroke-linejoin:round;">
</g>
<g style="fill-opacity:1.0; stroke-width:0; stroke-opacity:1; stroke-linecap:round; stroke-linejoin:round;">
<circle cx="61574.8" cy="25669.3" r="68.8976"/> 
</g>
<g style="fill-opacity:1.0; stroke-width:59.0551; stroke-opacity:1; stroke-linecap:round; stroke-linejoin:round;">
</g>
<g style="fill-opacity:1.0; stroke-width:0; stroke-opacity:1; stroke-linecap:round; stroke-linejoin:round;">
<circle cx="62708.7" cy="32913.4" r="68.8976"/> 
</g>
<g style="fill-opacity:1.0; stroke-width:59.0551; stroke-opacity:1; stroke-linecap:round; stroke-linejoin:round;">
</g>
<g style="fill-opacity:1.0; stroke-width:0; stroke-opacity:1; stroke-linecap:round; stroke-linejoin:round;">
<circle cx="60708.7" cy="32913.4" r="68.8976"/> 
</g>
<g style="fill-opacity:1.0; stroke-width:59.0551; stroke-opacity:1; stroke-linecap:round; stroke-linejoin:round;">
</g>
<g style="fill-opacity:1.0; stroke-width:0; stroke-opacity:1; stroke-linecap:round; stroke-linejoin:round;">
<circle cx="55984.3" cy="29645.7" r="68.8976"/> 
</g>
<g style="fill-opacity:1.0; stroke-width:59.0551; stroke-opacity:1; stroke-linecap:round; stroke-linejoin:round;">
</g>
<g style="fill-opacity:1.0; stroke-width:0; stroke-opacity:1; stroke-linecap:round; stroke-linejoin:round;">
<circle cx="55984.3" cy="26889.8" r="68.8976"/> 
</g>
<g style="fill-opacity:1.0; stroke-width:59.0551; stroke-opacity:1; stroke-linecap:round; stroke-linejoin:round;">
</g>
<g style="fill-opacity:1.0; stroke-width:59.0551; stroke-opacity:1; stroke-linecap:round; stroke-linejoin:round;">
</g> 
</g><g id="substrate-pads" style="fill:#bfba9e; stroke:#bfba9e;" mask="url(#pads-mask)"><g style="fill-opacity:1; stroke-opacity:1; stroke-linecap:round; stroke-linejoin:round;" transform="translate(0 0) scale(1 1)">
</g>
<g style="fill-opacity:0.0; stroke-width:-0.000393701; stroke-opacity:1; stroke-linecap:round; stroke-linejoin:round;">
<g>
</g>
<g style="fill-opacity:1.0; stroke-width:0; stroke-opacity:1; stroke-linecap:round; stroke-linejoin:round;">
<circle cx="67795.3" cy="33189" r="787.402"/> 
</g>
<g style="fill-opacity:1.0; stroke-width:59.0551; stroke-opacity:1; stroke-linecap:round; stroke-linejoin:round;">
</g>
<g style="fill-opacity:1.0; stroke-width:0; stroke-opacity:1; stroke-linecap:round; stroke-linejoin:round;">
<circle cx="67795.3" cy="29724.4" r="787.402"/> 
</g>
<g style="fill-opacity:1.0; stroke-width:59.0551; stroke-opacity:1; stroke-linecap:round; stroke-linejoin:round;">
</g>
<g style="fill-opacity:1.0; stroke-width:0; stroke-opacity:1; stroke-linecap:round; stroke-linejoin:round;">
<circle cx="65039.4" cy="32440.9" r="354.331"/> 
</g>
<g style="fill-opacity:1.0; stroke-width:59.0551; stroke-opacity:1; stroke-linecap:round; stroke-linejoin:round;">
</g>
<g style="fill-opacity:1.0; stroke-width:0; stroke-opacity:1; stroke-linecap:round; stroke-linejoin:round;">
<circle cx="65039.4" cy="31456.7" r="354.331"/> 
</g>
<g style="fill-opacity:1.0; stroke-width:59.0551; stroke-opacity:1; stroke-linecap:round; stroke-linejoin:round;">
</g>
<g style="fill-opacity:1.0; stroke-width:0; stroke-opacity:1; stroke-linecap:round; stroke-linejoin:round;">
<circle cx="65039.4" cy="30472.4" r="354.331"/> 
</g>
<g style="fill-opacity:1.0; stroke-width:59.0551; stroke-opacity:1; stroke-linecap:round; stroke-linejoin:round;">
</g>
<g>
</g>
<g style="fill-opacity:1.0; stroke-width:59.0551; stroke-opacity:1; stroke-linecap:round; stroke-linejoin:round;">
</g>
<g style="fill-opacity:1.0; stroke-width:944.882; stroke-opacity:1; stroke-linecap:round; stroke-linejoin:round;">
</g>
<g style="fill-opacity:0.0; stroke-width:944.882; stroke-opacity:1; stroke-linecap:round; stroke-linejoin:round;">
<path d="M63574 25669 L63574 25669 "/>
</g>
<g style="fill-opacity:1.0; stroke-width:0; stroke-opacity:1; stroke-linecap:round; stroke-linejoin:round;">
<circle cx="61574.8" cy="25669.3" r="472.441"/> 
</g>
<g style="fill-opacity:1.0; stroke-width:59.0551; stroke-opacity:1; stroke-linecap:round; stroke-linejoin:round;">
</g>
<g>
</g>
<g style="fill-opacity:1.0; stroke-width:59.0551; stroke-opacity:1; stroke-linecap:round; stroke-linejoin:round;">
</g>
<g style="fill-opacity:1.0; stroke-width:944.882; stroke-opacity:1; stroke-linecap:round; stroke-linejoin:round;">
</g>
<g style="fill-opacity:0.0; stroke-width:944.882; stroke-opacity:1; stroke-linecap:round; stroke-linejoin:round;">
<path d="M62708 32913 L62708 32913 "/>
</g>
<g style="fill-opacity:1.0; stroke-width:0; stroke-opacity:1; stroke-linecap:round; stroke-linejoin:round;">
<circle cx="60708.7" cy="32913.4" r="472.441"/> 
</g>
<g style="fill-opacity:1.0; stroke-width:59.0551; stroke-opacity:1; stroke-linecap:round; stroke-linejoin:round;">
</g>
<g>
</g>
<g style="fill-opacity:1.0; stroke-width:59.0551; stroke-opacity:1; stroke-linecap:round; stroke-linejoin:round;">
</g>
<g style="fill-opacity:1.0; stroke-width:0; stroke-opacity:1; stroke-linecap:round; stroke-linejoin:round;">
<path style="fill-opacity:1.0; stroke-width:0; stroke-opacity:1; stroke-linecap:round; stroke-linejoin:round;fill-rule:evenodd;" d="M 53976.4,30708.7 53976.4,29606.3 55078.7,29606.3 55078.7,30708.7 Z"/> 
<path style="fill-opacity:1.0; stroke-width:0; stroke-opacity:1; stroke-linecap:round; stroke-linejoin:round;fill-rule:evenodd;" d="M 53976.4,26889.8 53976.4,26023.6 55078.7,26023.6 55078.7,26889.8 Z"/> 
<path style="fill-opacity:1.0; stroke-width:0; stroke-opacity:1; stroke-linecap:round; stroke-linejoin:round;fill-rule:evenodd;" d="M 56889.8,27677.2 56889.8,26811 57992.1,26811 57992.1,27677.2 Z"/> 
</g>
<g>
</g>
<g>
</g>
<g style="fill-opacity:1.0; stroke-width:0; stroke-opacity:1; stroke-linecap:round; stroke-linejoin:round;">
</g>
<g style="fill-opacity:1.0; stroke-width:98.4252; stroke-opacity:1; stroke-linecap:round; stroke-linejoin:round;">
</g>
<g style="fill-opacity:0.0; stroke-width:98.4252; stroke-opacity:1; stroke-linecap:round; stroke-linejoin:round;">
<path d="M63740 30157 L65039 31456 "/>
<path d="M54527 30157 L63740 30157 "/>
<path d="M54527 25925 L54527 26456 "/>
<path d="M54783 25669 L54527 25925 "/>
<path d="M61574 25669 L54783 25669 "/>
<path d="M64685 32086 L65039 32440 "/>
<path d="M61535 32086 L64685 32086 "/>
<path d="M60708 32913 L61535 32086 "/>
<path d="M63574 29007 L65039 30472 "/>
<path d="M63574 25669 L63574 29007 "/>
</g>
<g>
</g>
</g>
<g style="fill-opacity:0.0; stroke-width:98.4252; stroke-opacity:1; stroke-linecap:round; stroke-linejoin:round;">
</g>
<g style="fill-opacity:1.0; stroke-width:0; stroke-opacity:1; stroke-linecap:round; stroke-linejoin:round;">
<circle cx="67795.3" cy="33189" r="68.8976"/> 
</g>
<g style="fill-opacity:1.0; stroke-width:59.0551; stroke-opacity:1; stroke-linecap:round; stroke-linejoin:round;">
</g>
<g style="fill-opacity:1.0; stroke-width:0; stroke-opacity:1; stroke-linecap:round; stroke-linejoin:round;">
<circle cx="67795.3" cy="29724.4" r="68.8976"/> 
</g>
<g style="fill-opacity:1.0; stroke-width:59.0551; stroke-opacity:1; stroke-linecap:round; stroke-linejoin:round;">
</g>
<g style="fill-opacity:1.0; stroke-width:0; stroke-opacity:1; stroke-linecap:round; stroke-linejoin:round;">
<circle cx="65039.4" cy="32440.9" r="68.8976"/> 
</g>
<g style="fill-opacity:1.0; stroke-width:59.0551; stroke-opacity:1; stroke-linecap:round; stroke-linejoin:round;">
</g>
<g style="fill-opacity:1.0; stroke-width:0; stroke-opacity:1; stroke-linecap:round; stroke-linejoin:round;">
<circle cx="65039.4" cy="31456.7" r="68.8976"/> 
</g>
<g style="fill-opacity:1.0; stroke-width:59.0551; stroke-opacity:1; stroke-linecap:round; stroke-linejoin:round;">
</g>
<g style="fill-opacity:1.0; stroke-width:0; stroke-opacity:1; stroke-linecap:round; stroke-linejoin:round;">
<circle cx="65039.4" cy="30472.4" r="68.8976"/> 
</g>
<g style="fill-opacity:1.0; stroke-width:59.0551; stroke-opacity:1; stroke-linecap:round; stroke-linejoin:round;">
</g>
<g style="fill-opacity:1.0; stroke-width:0; stroke-opacity:1; stroke-linecap:round; stroke-linejoin:round;">
<circle cx="63574.8" cy="25669.3" r="68.8976"/> 
</g>
<g style="fill-opacity:1.0; stroke-width:59.0551; stroke-opacity:1; stroke-linecap:round; stroke-linejoin:round;">
</g>
<g style="fill-opacity:1.0; stroke-width:0; stroke-opacity:1; stroke-linecap:round; stroke-linejoin:round;">
<circle cx="61574.8" cy="25669.3" r="68.8976"/> 
</g>
<g style="fill-opacity:1.0; stroke-width:59.0551; stroke-opacity:1; stroke-linecap:round; stroke-linejoin:round;">
</g>
<g style="fill-opacity:1.0; stroke-width:0; stroke-opacity:1; stroke-linecap:round; stroke-linejoin:round;">
<circle cx="62708.7" cy="32913.4" r="68.8976"/> 
</g>
<g style="fill-opacity:1.0; stroke-width:59.0551; stroke-opacity:1; stroke-linecap:round; stroke-linejoin:round;">
</g>
<g style="fill-opacity:1.0; stroke-width:0; stroke-opacity:1; stroke-linecap:round; stroke-linejoin:round;">
<circle cx="60708.7" cy="32913.4" r="68.8976"/> 
</g>
<g style="fill-opacity:1.0; stroke-width:59.0551; stroke-opacity:1; stroke-linecap:round; stroke-linejoin:round;">
</g>
<g style="fill-opacity:1.0; stroke-width:0; stroke-opacity:1; stroke-linecap:round; stroke-linejoin:round;">
<circle cx="55984.3" cy="29645.7" r="68.8976"/> 
</g>
<g style="fill-opacity:1.0; stroke-width:59.0551; stroke-opacity:1; stroke-linecap:round; stroke-linejoin:round;">
</g>
<g style="fill-opacity:1.0; stroke-width:0; stroke-opacity:1; stroke-linecap:round; stroke-linejoin:round;">
<circle cx="55984.3" cy="26889.8" r="68.8976"/> 
</g>
<g style="fill-opacity:1.0; stroke-width:59.0551; stroke-opacity:1; stroke-linecap:round; stroke-linejoin:round;">
</g>
<g style="fill-opacity:1.0; stroke-width:59.0551; stroke-opacity:1; stroke-linecap:round; stroke-linejoin:round;">
</g> 
</g><defs><mask id="pads-mask"><g style="fill:#ffffff; fill-opacity:1;stroke:#ffffff; stroke-opacity:1; stroke-linecap:round; stroke-linejoin:round;" transform="translate(0 0) scale(1 1)">
</g>
<g style="fill:#ffffff; fill-opacity:0.0;  stroke:#ffffff; stroke-width:-0.000393701; stroke-opacity:1;  stroke-linecap:round; stroke-linejoin:round;">
</g>
<g style="fill:#ffffff; fill-opacity:1.0;  stroke:#ffffff; stroke-width:0; stroke-opacity:1;  stroke-linecap:round; stroke-linejoin:round;">
<path style="fill:#ffffff; fill-opacity:1.0;  stroke:#ffffff; stroke-width:0; stroke-opacity:1;  stroke-linecap:round; stroke-linejoin:round;fill-rule:evenodd;" d="M 68030.8,32412.5 68177.8,32473.4 68177.8,32473.4 68310,32561.8 68422.5,32674.2 68507.2,32801 68510.9,32806.5 68571.7,32953.4 68602.8,33109.4 68602.8,33268.5 68571.7,33424.5 68510.9,33571.5 68510.9,33571.5 68422.5,33703.7 68310,33816.2 68177.8,33904.6 68177.8,33904.6 68177.8,33904.6 68030.8,33965.4 67874.8,33996.5 67715.7,33996.5 67559.7,33965.4 67412.8,33904.6 67412.8,33904.6 67412.8,33904.6 67280.5,33816.2 67168.1,33703.7 67079.7,33571.5 67079.7,33571.5 67018.8,33424.5 66987.8,33268.5 66987.8,33109.4 67018.8,32953.4 67079.7,32806.5 67083.4,32801 67168.1,32674.2 67280.5,32561.8 67412.8,32473.4 67412.8,32473.4 67559.7,32412.5 67715.7,32381.5 67874.8,32381.5 Z"/> 
<path style="fill:#ffffff; fill-opacity:1.0;  stroke:#ffffff; stroke-width:0; stroke-opacity:1;  stroke-linecap:round; stroke-linejoin:round;fill-rule:evenodd;" d="M 62852.3,32439.8 62933.4,32473.4 62942,32476.9 63022.6,32530.8 63091.2,32599.4 63144.8,32679.6 63145.1,32680.1 63182.3,32769.7 63201.2,32864.9 63201.2,32961.9 63182.3,33057 63160.6,33109.4 63145.1,33146.7 63091.2,33227.3 63022.6,33296 62942,33349.9 62942,33349.9 62942,33349.9 62852.3,33387 62757.2,33405.9 62660.2,33405.9 62565,33387 62475.4,33349.9 62475.4,33349.9 62475.4,33349.9 62394.7,33296 62326.1,33227.3 62272.2,33146.7 62256.8,33109.4 62235.1,33057 62216.1,32961.9 62216.1,32864.9 62235.1,32769.7 62272.2,32680.1 62272.5,32679.6 62326.1,32599.4 62394.7,32530.8 62475.4,32476.9 62483.9,32473.4 62565,32439.8 62660.2,32420.9 62757.2,32420.9 Z"/> 
<path style="fill:#ffffff; fill-opacity:1.0;  stroke:#ffffff; stroke-width:0; stroke-opacity:1;  stroke-linecap:round; stroke-linejoin:round;fill-rule:evenodd;" d="M 60852.3,32439.8 60933.4,32473.4 60942,32476.9 61022.6,32530.8 61091.2,32599.4 61144.8,32679.6 61145.1,32680.1 61182.3,32769.7 61201.2,32864.9 61201.2,32961.9 61182.3,33057 61160.6,33109.4 61145.1,33146.7 61091.2,33227.3 61022.6,33296 60942,33349.9 60942,33349.9 60942,33349.9 60852.3,33387 60757.2,33405.9 60660.2,33405.9 60565,33387 60475.4,33349.9 60475.4,33349.9 60475.4,33349.9 60394.7,33296 60326.1,33227.3 60272.2,33146.7 60256.8,33109.4 60235.1,33057 60216.1,32961.9 60216.1,32864.9 60235.1,32769.7 60272.2,32680.1 60272.5,32679.6 60326.1,32599.4 60394.7,32530.8 60475.4,32476.9 60483.9,32473.4 60565,32439.8 60660.2,32420.9 60757.2,32420.9 Z"/> 
<path style="fill:#ffffff; fill-opacity:1.0;  stroke:#ffffff; stroke-width:0; stroke-opacity:1;  stroke-linecap:round; stroke-linejoin:round;fill-rule:evenodd;" d="M 65148.6,32080.9 65216.7,32109.1 65216.7,32109.1 65278,32150.1 65330.2,32202.3 65330.2,32202.3 65371.2,32263.6 65399.4,32331.7 65413.8,32404.1 65413.8,32477.8 65399.4,32550.2 65371.2,32618.3 65371.2,32618.3 65330.2,32679.6 65278,32731.8 65247.2,32752.4 65216.7,32772.7 65148.6,32801 65076.2,32815.4 65002.5,32815.4 64930.2,32801 64862,32772.7 64831.6,32752.4 64800.7,32731.8 64748.5,32679.6 64707.6,32618.3 64707.6,32618.3 64679.3,32550.2 64665,32477.8 64665,32404.1 64679.3,32331.7 64707.6,32263.6 64748.5,32202.3 64748.5,32202.3 64800.7,32150.1 64862,32109.1 64862,32109.1 64930.2,32080.9 65002.5,32066.5 65076.2,32066.5 Z"/> 
<path style="fill:#ffffff; fill-opacity:1.0;  stroke:#ffffff; stroke-width:0; stroke-opacity:1;  stroke-linecap:round; stroke-linejoin:round;fill-rule:evenodd;" d="M 65148.6,31096.7 65216.7,31124.9 65216.7,31124.9 65278,31165.9 65330.2,31218 65330.2,31218 65371.2,31279.3 65399.4,31347.5 65413.8,31419.8 65413.8,31493.6 65399.4,31565.9 65371.2,31634 65371.2,31634 65330.2,31695.4 65278,31747.5 65247.2,31768.1 65216.7,31788.5 65148.6,31816.7 65076.2,31831.1 65002.5,31831.1 64930.2,31816.7 64862,31788.5 64831.6,31768.1 64800.7,31747.5 64748.5,31695.4 64707.6,31634 64707.6,31634 64679.3,31565.9 64665,31493.6 64665,31419.8 64679.3,31347.5 64707.6,31279.3 64748.5,31218 64748.5,31218 64800.7,31165.9 64862,31124.9 64862,31124.9 64930.2,31096.7 65002.5,31082.3 65076.2,31082.3 Z"/> 
<path style="fill:#ffffff; fill-opacity:1.0;  stroke:#ffffff; stroke-width:0; stroke-opacity:1;  stroke-linecap:round; stroke-linejoin:round;fill-rule:evenodd;" d="M 65148.6,30112.4 65216.7,30140.6 65216.7,30140.6 65278,30181.6 65330.2,30233.8 65330.2,30233.8 65371.2,30295.1 65399.4,30363.2 65413.8,30435.6 65413.8,30509.3 65399.4,30581.7 65371.2,30649.8 65371.2,30649.8 65330.2,30711.1 65278,30763.3 65247.2,30783.9 65216.7,30804.2 65148.6,30832.5 65076.2,30846.9 65002.5,30846.9 64930.2,30832.5 64862,30804.2 64831.6,30783.9 64800.7,30763.3 64748.5,30711.1 64707.6,30649.8 64707.6,30649.8 64679.3,30581.7 64665,30509.3 64665,30435.6 64679.3,30363.2 64707.6,30295.1 64748.5,30233.8 64748.5,30233.8 64800.7,30181.6 64862,30140.6 64862,30140.6 64930.2,30112.4 65002.5,30098 65076.2,30098 Z"/> 
<path style="fill:#ffffff; fill-opacity:1.0;  stroke:#ffffff; stroke-width:0; stroke-opacity:1;  stroke-linecap:round; stroke-linejoin:round;fill-rule:evenodd;" d="M 55098.8,30728.7 53956.3,30728.7 53956.3,29586.2 55098.8,29586.2 Z"/> 
<path style="fill:#ffffff; fill-opacity:1.0;  stroke:#ffffff; stroke-width:0; stroke-opacity:1;  stroke-linecap:round; stroke-linejoin:round;fill-rule:evenodd;" d="M 68030.8,28948 68177.8,29008.8 68177.8,29008.8 68310,29097.2 68422.5,29209.7 68510.9,29341.9 68571.7,29488.9 68602.8,29644.9 68602.8,29803.9 68571.7,29959.9 68555,30000.4 68510.9,30106.9 68422.5,30239.1 68310,30351.6 68177.8,30440 68177.8,30440 68177.8,30440 68030.8,30500.9 67874.8,30531.9 67715.7,30531.9 67559.7,30500.9 67412.8,30440 67412.8,30440 67412.8,30440 67280.5,30351.6 67168.1,30239.1 67079.7,30106.9 67035.6,30000.4 67018.8,29959.9 66987.8,29803.9 66987.8,29644.9 67018.8,29488.9 67079.7,29341.9 67168.1,29209.7 67280.5,29097.2 67412.8,29008.8 67412.8,29008.8 67559.7,28948 67715.7,28916.9 67874.8,28916.9 Z"/> 
<path style="fill:#ffffff; fill-opacity:1.0;  stroke:#ffffff; stroke-width:0; stroke-opacity:1;  stroke-linecap:round; stroke-linejoin:round;fill-rule:evenodd;" d="M 56028.9,29292.9 56087.7,29304.6 56152.3,29331.3 56210.4,29370.1 56259.8,29419.5 56298.6,29477.6 56325.3,29542.2 56339,29610.7 56339,29680.6 56325.3,29749.1 56298.6,29813.7 56259.8,29871.8 56210.4,29921.2 56152.3,29960 56087.7,29986.8 56028.9,29998.5 56019.2,30000.4 55949.3,30000.4 55939.6,29998.5 55880.8,29986.8 55816.2,29960 55758.1,29921.2 55708.7,29871.8 55669.9,29813.7 55643.2,29749.1 55629.5,29680.6 55629.5,29610.7 55643.2,29542.2 55669.9,29477.6 55708.7,29419.5 55758.1,29370.1 55816.2,29331.3 55880.8,29304.6 55939.6,29292.9 55949.3,29290.9 56019.2,29290.9 Z"/> 
<path style="fill:#ffffff; fill-opacity:1.0;  stroke:#ffffff; stroke-width:0; stroke-opacity:1;  stroke-linecap:round; stroke-linejoin:round;fill-rule:evenodd;" d="M 58012.2,27697.2 56869.7,27697.2 56869.7,26790.9 58012.2,26790.9 Z"/> 
<path style="fill:#ffffff; fill-opacity:1.0;  stroke:#ffffff; stroke-width:0; stroke-opacity:1;  stroke-linecap:round; stroke-linejoin:round;fill-rule:evenodd;" d="M 56028.9,26537 56087.7,26548.7 56152.3,26575.4 56210.4,26614.2 56259.8,26663.6 56298.6,26721.7 56325.3,26786.3 56339,26854.8 56339,26924.7 56325.3,26993.2 56298.6,27057.8 56259.8,27115.9 56210.4,27165.3 56152.3,27204.1 56087.7,27230.9 56028.9,27242.5 56019.2,27244.5 55949.3,27244.5 55939.6,27242.5 55880.8,27230.9 55816.2,27204.1 55758.1,27165.3 55708.7,27115.9 55669.9,27057.8 55643.2,26993.2 55629.5,26924.7 55629.5,26854.8 55643.2,26786.3 55669.9,26721.7 55708.7,26663.6 55758.1,26614.2 55816.2,26575.4 55880.8,26548.7 55939.6,26537 55949.3,26535 56019.2,26535 Z"/> 
<path style="fill:#ffffff; fill-opacity:1.0;  stroke:#ffffff; stroke-width:0; stroke-opacity:1;  stroke-linecap:round; stroke-linejoin:round;fill-rule:evenodd;" d="M 55098.8,26909.8 53956.3,26909.8 53956.3,26003.5 55098.8,26003.5 Z"/> 
<path style="fill:#ffffff; fill-opacity:1.0;  stroke:#ffffff; stroke-width:0; stroke-opacity:1;  stroke-linecap:round; stroke-linejoin:round;fill-rule:evenodd;" d="M 61718.5,25195.7 61808.1,25232.8 61888.8,25286.7 61957.4,25355.3 62011.3,25436 62048.4,25525.6 62067.3,25620.8 62067.3,25717.8 62048.4,25813 62011.3,25902.6 61957.4,25983.3 61888.8,26051.9 61808.1,26105.8 61808.1,26105.8 61808.1,26105.8 61718.5,26142.9 61623.3,26161.8 61526.3,26161.8 61431.1,26142.9 61341.5,26105.8 61341.5,26105.8 61341.5,26105.8 61260.8,26051.9 61192.2,25983.3 61138.3,25902.6 61101.2,25813 61082.3,25717.8 61082.3,25620.8 61101.2,25525.6 61138.3,25436 61192.2,25355.3 61260.8,25286.7 61341.5,25232.8 61431.1,25195.7 61526.3,25176.8 61623.3,25176.8 Z"/> 
<path style="fill:#ffffff; fill-opacity:1.0;  stroke:#ffffff; stroke-width:0; stroke-opacity:1;  stroke-linecap:round; stroke-linejoin:round;fill-rule:evenodd;" d="M 63718.5,25195.7 63808.1,25232.8 63888.8,25286.7 63957.4,25355.3 64011.3,25436 64048.4,25525.6 64067.3,25620.8 64067.3,25717.8 64048.4,25813 64011.3,25902.6 63957.4,25983.3 63888.8,26051.9 63808.1,26105.8 63808.1,26105.8 63808.1,26105.8 63718.5,26142.9 63623.3,26161.8 63526.3,26161.8 63431.1,26142.9 63341.5,26105.8 63341.5,26105.8 63341.5,26105.8 63260.8,26051.9 63192.2,25983.3 63138.3,25902.6 63101.2,25813 63082.3,25717.8 63082.3,25620.8 63101.2,25525.6 63138.3,25436 63192.2,25355.3 63260.8,25286.7 63341.5,25232.8 63431.1,25195.7 63526.3,25176.8 63623.3,25176.8 Z"/> 
</g> 
</mask></defs><defs><mask id="pads-mask-silkscreen"><g style="fill:#000000; fill-opacity:1;stroke:#000000; stroke-opacity:1; stroke-linecap:round; stroke-linejoin:round;" transform="translate(0 0) scale(1 1)">
</g>
<g style="fill:#000000; fill-opacity:0.0;  stroke:#000000; stroke-width:-0.000393701; stroke-opacity:1;  stroke-linecap:round; stroke-linejoin:round;">
</g>
<g style="fill:#000000; fill-opacity:1.0;  stroke:#000000; stroke-width:0; stroke-opacity:1;  stroke-linecap:round; stroke-linejoin:round;">
<path style="fill:#000000; fill-opacity:1.0;  stroke:#000000; stroke-width:0; stroke-opacity:1;  stroke-linecap:round; stroke-linejoin:round;fill-rule:evenodd;" d="M 68030.8,32412.5 68177.8,32473.4 68177.8,32473.4 68310,32561.8 68422.5,32674.2 68507.2,32801 68510.9,32806.5 68571.7,32953.4 68602.8,33109.4 68602.8,33268.5 68571.7,33424.5 68510.9,33571.5 68510.9,33571.5 68422.5,33703.7 68310,33816.2 68177.8,33904.6 68177.8,33904.6 68177.8,33904.6 68030.8,33965.4 67874.8,33996.5 67715.7,33996.5 67559.7,33965.4 67412.8,33904.6 67412.8,33904.6 67412.8,33904.6 67280.5,33816.2 67168.1,33703.7 67079.7,33571.5 67079.7,33571.5 67018.8,33424.5 66987.8,33268.5 66987.8,33109.4 67018.8,32953.4 67079.7,32806.5 67083.4,32801 67168.1,32674.2 67280.5,32561.8 67412.8,32473.4 67412.8,32473.4 67559.7,32412.5 67715.7,32381.5 67874.8,32381.5 Z"/> 
<path style="fill:#000000; fill-opacity:1.0;  stroke:#000000; stroke-width:0; stroke-opacity:1;  stroke-linecap:round; stroke-linejoin:round;fill-rule:evenodd;" d="M 62852.3,32439.8 62933.4,32473.4 62942,32476.9 63022.6,32530.8 63091.2,32599.4 63144.8,32679.6 63145.1,32680.1 63182.3,32769.7 63201.2,32864.9 63201.2,32961.9 63182.3,33057 63160.6,33109.4 63145.1,33146.7 63091.2,33227.3 63022.6,33296 62942,33349.9 62942,33349.9 62942,33349.9 62852.3,33387 62757.2,33405.9 62660.2,33405.9 62565,33387 62475.4,33349.9 62475.4,33349.9 62475.4,33349.9 62394.7,33296 62326.1,33227.3 62272.2,33146.7 62256.8,33109.4 62235.1,33057 62216.1,32961.9 62216.1,32864.9 62235.1,32769.7 62272.2,32680.1 62272.5,32679.6 62326.1,32599.4 62394.7,32530.8 62475.4,32476.9 62483.9,32473.4 62565,32439.8 62660.2,32420.9 62757.2,32420.9 Z"/> 
<path style="fill:#000000; fill-opacity:1.0;  stroke:#000000; stroke-width:0; stroke-opacity:1;  stroke-linecap:round; stroke-linejoin:round;fill-rule:evenodd;" d="M 60852.3,32439.8 60933.4,32473.4 60942,32476.9 61022.6,32530.8 61091.2,32599.4 61144.8,32679.6 61145.1,32680.1 61182.3,32769.7 61201.2,32864.9 61201.2,32961.9 61182.3,33057 61160.6,33109.4 61145.1,33146.7 61091.2,33227.3 61022.6,33296 60942,33349.9 60942,33349.9 60942,33349.9 60852.3,33387 60757.2,33405.9 60660.2,33405.9 60565,33387 60475.4,33349.9 60475.4,33349.9 60475.4,33349.9 60394.7,33296 60326.1,33227.3 60272.2,33146.7 60256.8,33109.4 60235.1,33057 60216.1,32961.9 60216.1,32864.9 60235.1,32769.7 60272.2,32680.1 60272.5,32679.6 60326.1,32599.4 60394.7,32530.8 60475.4,32476.9 60483.9,32473.4 60565,32439.8 60660.2,32420.9 60757.2,32420.9 Z"/> 
<path style="fill:#000000; fill-opacity:1.0;  stroke:#000000; stroke-width:0; stroke-opacity:1;  stroke-linecap:round; stroke-linejoin:round;fill-rule:evenodd;" d="M 65148.6,32080.9 65216.7,32109.1 65216.7,32109.1 65278,32150.1 65330.2,32202.3 65330.2,32202.3 65371.2,32263.6 65399.4,32331.7 65413.8,32404.1 65413.8,32477.8 65399.4,32550.2 65371.2,32618.3 65371.2,32618.3 65330.2,32679.6 65278,32731.8 65247.2,32752.4 65216.7,32772.7 65148.6,32801 65076.2,32815.4 65002.5,32815.4 64930.2,32801 64862,32772.7 64831.6,32752.4 64800.7,32731.8 64748.5,32679.6 64707.6,32618.3 64707.6,32618.3 64679.3,32550.2 64665,32477.8 64665,32404.1 64679.3,32331.7 64707.6,32263.6 64748.5,32202.3 64748.5,32202.3 64800.7,32150.1 64862,32109.1 64862,32109.1 64930.2,32080.9 65002.5,32066.5 65076.2,32066.5 Z"/> 
<path style="fill:#000000; fill-opacity:1.0;  stroke:#000000; stroke-width:0; stroke-opacity:1;  stroke-linecap:round; stroke-linejoin:round;fill-rule:evenodd;" d="M 65148.6,31096.7 65216.7,31124.9 65216.7,31124.9 65278,31165.9 65330.2,31218 65330.2,31218 65371.2,31279.3 65399.4,31347.5 65413.8,31419.8 65413.8,31493.6 65399.4,31565.9 65371.2,31634 65371.2,31634 65330.2,31695.4 65278,31747.5 65247.2,31768.1 65216.7,31788.5 65148.6,31816.7 65076.2,31831.1 65002.5,31831.1 64930.2,31816.7 64862,31788.5 64831.6,31768.1 64800.7,31747.5 64748.5,31695.4 64707.6,31634 64707.6,31634 64679.3,31565.9 64665,31493.6 64665,31419.8 64679.3,31347.5 64707.6,31279.3 64748.5,31218 64748.5,31218 64800.7,31165.9 64862,31124.9 64862,31124.9 64930.2,31096.7 65002.5,31082.3 65076.2,31082.3 Z"/> 
<path style="fill:#000000; fill-opacity:1.0;  stroke:#000000; stroke-width:0; stroke-opacity:1;  stroke-linecap:round; stroke-linejoin:round;fill-rule:evenodd;" d="M 65148.6,30112.4 65216.7,30140.6 65216.7,30140.6 65278,30181.6 65330.2,30233.8 65330.2,30233.8 65371.2,30295.1 65399.4,30363.2 65413.8,30435.6 65413.8,30509.3 65399.4,30581.7 65371.2,30649.8 65371.2,30649.8 65330.2,30711.1 65278,30763.3 65247.2,30783.9 65216.7,30804.2 65148.6,30832.5 65076.2,30846.9 65002.5,30846.9 64930.2,30832.5 64862,30804.2 64831.6,30783.9 64800.7,30763.3 64748.5,30711.1 64707.6,30649.8 64707.6,30649.8 64679.3,30581.7 64665,30509.3 64665,30435.6 64679.3,30363.2 64707.6,30295.1 64748.5,30233.8 64748.5,30233.8 64800.7,30181.6 64862,30140.6 64862,30140.6 64930.2,30112.4 65002.5,30098 65076.2,30098 Z"/> 
<path style="fill:#000000; fill-opacity:1.0;  stroke:#000000; stroke-width:0; stroke-opacity:1;  stroke-linecap:round; stroke-linejoin:round;fill-rule:evenodd;" d="M 55098.8,30728.7 53956.3,30728.7 53956.3,29586.2 55098.8,29586.2 Z"/> 
<path style="fill:#000000; fill-opacity:1.0;  stroke:#000000; stroke-width:0; stroke-opacity:1;  stroke-linecap:round; stroke-linejoin:round;fill-rule:evenodd;" d="M 68030.8,28948 68177.8,29008.8 68177.8,29008.8 68310,29097.2 68422.5,29209.7 68510.9,29341.9 68571.7,29488.9 68602.8,29644.9 68602.8,29803.9 68571.7,29959.9 68555,30000.4 68510.9,30106.9 68422.5,30239.1 68310,30351.6 68177.8,30440 68177.8,30440 68177.8,30440 68030.8,30500.9 67874.8,30531.9 67715.7,30531.9 67559.7,30500.9 67412.8,30440 67412.8,30440 67412.8,30440 67280.5,30351.6 67168.1,30239.1 67079.7,30106.9 67035.6,30000.4 67018.8,29959.9 66987.8,29803.9 66987.8,29644.9 67018.8,29488.9 67079.7,29341.9 67168.1,29209.7 67280.5,29097.2 67412.8,29008.8 67412.8,29008.8 67559.7,28948 67715.7,28916.9 67874.8,28916.9 Z"/> 
<path style="fill:#000000; fill-opacity:1.0;  stroke:#000000; stroke-width:0; stroke-opacity:1;  stroke-linecap:round; stroke-linejoin:round;fill-rule:evenodd;" d="M 56028.9,29292.9 56087.7,29304.6 56152.3,29331.3 56210.4,29370.1 56259.8,29419.5 56298.6,29477.6 56325.3,29542.2 56339,29610.7 56339,29680.6 56325.3,29749.1 56298.6,29813.7 56259.8,29871.8 56210.4,29921.2 56152.3,29960 56087.7,29986.8 56028.9,29998.5 56019.2,30000.4 55949.3,30000.4 55939.6,29998.5 55880.8,29986.8 55816.2,29960 55758.1,29921.2 55708.7,29871.8 55669.9,29813.7 55643.2,29749.1 55629.5,29680.6 55629.5,29610.7 55643.2,29542.2 55669.9,29477.6 55708.7,29419.5 55758.1,29370.1 55816.2,29331.3 55880.8,29304.6 55939.6,29292.9 55949.3,29290.9 56019.2,29290.9 Z"/> 
<path style="fill:#000000; fill-opacity:1.0;  stroke:#000000; stroke-width:0; stroke-opacity:1;  stroke-linecap:round; stroke-linejoin:round;fill-rule:evenodd;" d="M 58012.2,27697.2 56869.7,27697.2 56869.7,26790.9 58012.2,26790.9 Z"/> 
<path style="fill:#000000; fill-opacity:1.0;  stroke:#000000; stroke-width:0; stroke-opacity:1;  stroke-linecap:round; stroke-linejoin:round;fill-rule:evenodd;" d="M 56028.9,26537 56087.7,26548.7 56152.3,26575.4 56210.4,26614.2 56259.8,26663.6 56298.6,26721.7 56325.3,26786.3 56339,26854.8 56339,26924.7 56325.3,26993.2 56298.6,27057.8 56259.8,27115.9 56210.4,27165.3 56152.3,27204.1 56087.7,27230.9 56028.9,27242.5 56019.2,27244.5 55949.3,27244.5 55939.6,27242.5 55880.8,27230.9 55816.2,27204.1 55758.1,27165.3 55708.7,27115.9 55669.9,27057.8 55643.2,26993.2 55629.5,26924.7 55629.5,26854.8 55643.2,26786.3 55669.9,26721.7 55708.7,26663.6 55758.1,26614.2 55816.2,26575.4 55880.8,26548.7 55939.6,26537 55949.3,26535 56019.2,26535 Z"/> 
<path style="fill:#000000; fill-opacity:1.0;  stroke:#000000; stroke-width:0; stroke-opacity:1;  stroke-linecap:round; stroke-linejoin:round;fill-rule:evenodd;" d="M 55098.8,26909.8 53956.3,26909.8 53956.3,26003.5 55098.8,26003.5 Z"/> 
<path style="fill:#000000; fill-opacity:1.0;  stroke:#000000; stroke-width:0; stroke-opacity:1;  stroke-linecap:round; stroke-linejoin:round;fill-rule:evenodd;" d="M 61718.5,25195.7 61808.1,25232.8 61888.8,25286.7 61957.4,25355.3 62011.3,25436 62048.4,25525.6 62067.3,25620.8 62067.3,25717.8 62048.4,25813 62011.3,25902.6 61957.4,25983.3 61888.8,26051.9 61808.1,26105.8 61808.1,26105.8 61808.1,26105.8 61718.5,26142.9 61623.3,26161.8 61526.3,26161.8 61431.1,26142.9 61341.5,26105.8 61341.5,26105.8 61341.5,26105.8 61260.8,26051.9 61192.2,25983.3 61138.3,25902.6 61101.2,25813 61082.3,25717.8 61082.3,25620.8 61101.2,25525.6 61138.3,25436 61192.2,25355.3 61260.8,25286.7 61341.5,25232.8 61431.1,25195.7 61526.3,25176.8 61623.3,25176.8 Z"/> 
<path style="fill:#000000; fill-opacity:1.0;  stroke:#000000; stroke-width:0; stroke-opacity:1;  stroke-linecap:round; stroke-linejoin:round;fill-rule:evenodd;" d="M 63718.5,25195.7 63808.1,25232.8 63888.8,25286.7 63957.4,25355.3 64011.3,25436 64048.4,25525.6 64067.3,25620.8 64067.3,25717.8 64048.4,25813 64011.3,25902.6 63957.4,25983.3 63888.8,26051.9 63808.1,26105.8 63808.1,26105.8 63808.1,26105.8 63718.5,26142.9 63623.3,26161.8 63526.3,26161.8 63431.1,26142.9 63341.5,26105.8 63341.5,26105.8 63341.5,26105.8 63260.8,26051.9 63192.2,25983.3 63138.3,25902.6 63101.2,25813 63082.3,25717.8 63082.3,25620.8 63101.2,25525.6 63138.3,25436 63192.2,25355.3 63260.8,25286.7 63341.5,25232.8 63431.1,25195.7 63526.3,25176.8 63623.3,25176.8 Z"/> 
</g> 
<rect fill="white" height="11830" width="17736" x="53139" y="23612"/></mask></defs><g id="substrate-silk" style="fill:#f0f0f0; stroke:#f0f0f0;" mask="url(#pads-mask-silkscreen)"><g style="fill-opacity:1; stroke-opacity:1; stroke-linecap:round; stroke-linejoin:round;" transform="translate(0 0) scale(1 1)">
</g>
<g style="fill-opacity:0.0; stroke-width:-0.000393701; stroke-opacity:1; stroke-linecap:round; stroke-linejoin:round;">
</g>
<g style="fill-opacity:0.0; stroke-width:47.2441; stroke-opacity:1; stroke-linecap:round; stroke-linejoin:round;">
<path d="M65385 29479 L66935 29479 "/>
<path d="M68655 29479 L70204 29479 "/>
<path d="M65385 33433 L66935 33433 "/>
<path d="M68655 33433 L70204 33433 "/>
<path d="M65385 29479 L65385 30129 "/>
<path d="M65385 30815 L65385 31114 "/>
<path d="M65385 31799 L65385 32098 "/>
<path d="M65385 32783 L65385 33433 "/>
<path d="M70204 29479 L70204 33433 "/>
<circle cx="61574.8" cy="25669.3" r="1031.5"/> 
<path d="M62606 25669 L62984 25669 "/>
<circle cx="60708.7" cy="32913.4" r="1031.5"/> 
<path d="M61740 32913 L62118 32913 "/>
<path d="M54763 25944 L54763 25472 "/>
<path d="M54763 25472 L54960 25472 "/>
<path d="M54960 25472 L54960 24488 "/>
<path d="M54960 24488 L57007 24488 "/>
<path d="M57007 24488 L57007 25472 "/>
<path d="M57007 25472 L57204 25472 "/>
<path d="M57204 25472 L57204 26732 "/>
<path d="M57204 27755 L57204 31259 "/>
<path d="M57204 31259 L54763 31259 "/>
<path d="M54763 31259 L54763 30787 "/>
<path d="M54763 29527 L54763 26968 "/>
<path d="M54763 25944 L53976 25944 "/>
<path d="M54763 26968 L53976 26968 "/>
</g>
<g style="fill-opacity:0.0; stroke-width:59.0551; stroke-opacity:1; stroke-linecap:round; stroke-linejoin:round;">
<text x="67421.3" y="28641.7" textLength="1106.11" font-size="524.934" lengthAdjust="spacingAndGlyphs" text-anchor="middle" opacity="0">RV1</text>
<path d="M67186 28622 L67055 28435 "/>
<path d="M66961 28622 L66961 28229 L67111 28229 L67149 28248 L67168 28266 L67186 28304 L67186 28360 L67168 28398 L67149 28416 L67111 28435 L66961 28435 "/>
<path d="M67299 28229 L67430 28622 L67561 28229 "/>
<path d="M67899 28622 L67674 28622 "/>
<path d="M67786 28622 L67786 28229 L67749 28285 L67711 28323 L67674 28341 "/>
<text x="62574.8" y="24440.9" textLength="845.426" font-size="524.934" lengthAdjust="spacingAndGlyphs" text-anchor="middle" opacity="0">R2</text>
<path d="M62509 24422 L62377 24234 "/>
<path d="M62284 24422 L62284 24028 L62434 24028 L62471 24047 L62490 24065 L62509 24103 L62509 24159 L62490 24197 L62471 24215 L62434 24234 L62284 24234 "/>
<path d="M62659 24065 L62677 24047 L62715 24028 L62809 24028 L62846 24047 L62865 24065 L62884 24103 L62884 24140 L62865 24197 L62640 24422 L62884 24422 "/>
<text x="61708.7" y="31685" textLength="845.426" font-size="524.934" lengthAdjust="spacingAndGlyphs" text-anchor="middle" opacity="0">R1</text>
<path d="M61643 31666 L61511 31478 "/>
<path d="M61418 31666 L61418 31272 L61568 31272 L61605 31291 L61624 31310 L61643 31347 L61643 31403 L61624 31441 L61605 31460 L61568 31478 L61418 31478 "/>
<path d="M62017 31666 L61793 31666 "/>
<path d="M61905 31666 L61905 31272 L61868 31328 L61830 31366 L61793 31385 "/>
<text x="55984.3" y="24173.2" textLength="751.687" font-size="524.934" lengthAdjust="spacingAndGlyphs" text-anchor="middle" opacity="0">J1</text>
<path d="M55853 23760 L55853 24041 L55834 24098 L55796 24135 L55740 24154 L55703 24154 "/>
<path d="M56246 24154 L56021 24154 "/>
<path d="M56134 24154 L56134 23760 L56096 23817 L56059 23854 L56021 23873 "/>
<g>
</g>
</g> 
</g><g id="substrate-outline" style="fill:#000000; stroke:#000000;"><g style="fill-opacity:1; stroke-opacity:1; stroke-linecap:round; stroke-linejoin:round;" transform="translate(0 0) scale(1 1)">
</g>
<g style="fill-opacity:0.0; stroke-width:-0.000393701; stroke-opacity:1; stroke-linecap:round; stroke-linejoin:round;">
</g>
<g style="fill-opacity:0.0; stroke-width:19.685; stroke-opacity:1; stroke-linecap:round; stroke-linejoin:round;">
<path d="M53149 35433 L53149 23622 "/>
<path d="M55118 35433 L53149 35433 "/>
<path d="M70866 35433 L55118 35433 "/>
<path d="M70866 23622 L70866 35433 "/>
<path d="M53149 23622 L70866 23622 "/>
<g>
</g>
<g>
</g>
<g>
</g>
<g>
</g>
<g>
</g>
</g> 
</g><defs><mask id="hole-mask"><g><rect fill="white" x="53139" y="23612" width="17736" height="11830"/><polyline stroke-linecap="round" stroke="black" stroke-width="787" points="0.0 0 0.0 0" transform="translate(67795 33188) rotate(-0.0)"/><polyline stroke-linecap="round" stroke="black" stroke-width="787" points="0.0 0 0.0 0" transform="translate(67795 29724) rotate(-0.0)"/><polyline stroke-linecap="round" stroke="black" stroke-width="393" points="0.0 0 0.0 0" transform="translate(65039 32440) rotate(-0.0)"/><polyline stroke-linecap="round" stroke="black" stroke-width="393" points="0.0 0 0.0 0" transform="translate(65039 31456) rotate(-0.0)"/><polyline stroke-linecap="round" stroke="black" stroke-width="393" points="0.0 0 0.0 0" transform="translate(65039 30472) rotate(-0.0)"/><polyline stroke-linecap="round" stroke="black" stroke-width="472" points="0.0 0 0.0 0" transform="translate(63574 25669) rotate(-0.0)"/><polyline stroke-linecap="round" stroke="black" stroke-width="472" points="0.0 0 0.0 0" transform="translate(61574 25669) rotate(-0.0)"/><polyline stroke-linecap="round" stroke="black" stroke-width="472" points="0.0 0 0.0 0" transform="translate(62708 32913) rotate(-0.0)"/><polyline stroke-linecap="round" stroke="black" stroke-width="472" points="0.0 0 0.0 0" transform="translate(60708 32913) rotate(-0.0)"/><polyline stroke-linecap="round" stroke="black" stroke-width="669" points="0.0 0 0.0 0" transform="translate(55984 29645) rotate(-0.0)"/><polyline stroke-linecap="round" stroke="black" stroke-width="669" points="0.0 0 0.0 0" transform="translate(55984 26889) rotate(-0.0)"/></g></mask></defs></g><g><g id="substrate-vcut" style="fill:#bf2600; stroke:#bf2600;"><g style="fill-opacity:1; stroke-opacity:1; stroke-linecap:round; stroke-linejoin:round;" transform="translate(0 0) scale(1 1)">
</g>
<g style="fill-opacity:0.0; stroke-width:-0.000393701; stroke-opacity:1; stroke-linecap:round; stroke-linejoin:round;">
<g>
</g>
<g>
</g>
<g>
</g>
<g>
</g>
<g>
</g>
</g> 
</g></g></g><g transform="translate(-53140, -23613)" id="highlightContainer"/><g transform="translate(-53140, -23613)" id="componentContainer"/></svg>