<!DOCTYPE svg PUBLIC "-//W3C//DTD SVG 1.1//EN" "http://www.w3.org/Graphics/SVG/1.1/DTD/svg11.dtd">
<svg xmlns="http://www.w3.org/2000/svg" version="1.1" width="4.5050002cm" height="3.0050002cm" viewBox="0 0 17736 11830">
            <title>Picture generated by PcbDraw </title>
            <desc>Picture generated by PcbDraw</desc>
        <g transform="translate(-53140, -23613)" id="boardContainer"><g clip-path="url(#cut-off)" mask="url(#hole-mask)"><defs><clipPath id="cut-off"><path d=" M 53149.0 23622.0 L 70866.0 23622.0 L 70866.0 35433.0 L 55118.0 35433.0 L 53149.0 35433.0 L 53149.0 23622.0 " style="fill-rule: evenodd;"/></clipPath></defs><g id="substrate-board" style="fill:#285e3a; stroke:#285e3a;"><path d=" M 53149.0 23622.0 L 70866.0 23622.0 L 70866.0 35433.0 L 55118.0 35433.0 L 53149.0 35433.0 L 53149.0 23622.0 " style="fill-rule: evenodd;"/><g style="fill:#000000; stroke: #000000;"><g style="fill-opacity:1; stroke-opacity:1; stroke-linecap:round; stroke-linejoin:round;" transform="translate(0 0) scale(1 1)">
</g>
<g style="fill-opacity:0.0; stroke-width:-0.000393701; stroke-opacity:1; stroke-linecap:round; stroke-linejoin:round;">
</g>
<g style="fill-opacity:0.0; stroke-width:19.685; stroke-opacity:1; stroke-linecap:round; stroke-linejoin:round;">
<path d="M53149 35433 L53149 23622 "/>
<path d="M55118 35433 L53149 35433 "/>
<path d="M70866 35433 L55118 35433 "/>
<path d="M70866 23622 L70866 35433 "/>
<path d="M53149 23622 L70866 23622 "/>
<g>
</g>
<g>
</g>
<g>
</g>
<g>
</g>
<g>
</g>
</g> 
</g></g><g id="substrate-clad" style="fill:#9c6b28; stroke:#9c6b28;"><g style="fill-opacity:1; stroke-opacity:1; stroke-linecap:round; stroke-linejoin:round;" transform="translate(0 0) scale(1 1)">
</g>
<g style="fill-opacity:0.0; stroke-width:-0.000393701; stroke-opacity:1; stroke-linecap:round; stroke-linejoin:round;">
</g>
<g style="fill-opacity:1.0; stroke-width:0; stroke-opacity:1; stroke-linecap:round; stroke-linejoin:round;">
<path style="fill-opacity:1.0; stroke-width:0; stroke-opacity:1; stroke-linecap:round; stroke-linejoin:round;fill-rule:evenodd;" d="M 60852.3,32439.8 60942,32476.9 61022.6,32530.8 61091.2,32599.4 61145.1,32680.1 61182.3,32769.7 61201.2,32864.9 61201.2,32961.9 61182.3,33057 61145.1,33146.7 61091.2,33227.3 61022.6,33296 60942,33349.9 60942,33349.9 60942,33349.9 60852.3,33387 60757.2,33405.9 60660.2,33405.9 60565,33387 60475.4,33349.9 60475.4,33349.9 60475.4,33349.9 60394.7,33296 60326.1,33227.3 60272.2,33146.7 60235.1,33057 60216.1,32961.9 60216.1,32864.9 60235.1,32769.7 60272.2,32680.1 60326.1,32599.4 60394.7,32530.8 60475.4,32476.9 60565,32439.8 60660.2,32420.9 60757.2,32420.9 Z"/> 
<path style="fill-opacity:1.0; stroke-width:0; stroke-opacity:1; stroke-linecap:round; stroke-linejoin:round;fill-rule:evenodd;" d="M 62852.3,32439.8 62942,32476.9 63022.6,32530.8 63091.2,32599.4 63145.1,32680.1 63182.3,32769.7 63201.2,32864.9 63201.2,32961.9 63182.3,33057 63145.1,33146.7 63091.2,33227.3 63022.6,33296 62942,33349.9 62942,33349.9 62942,33349.9 62852.3,33387 62757.2,33405.9 62660.2,33405.9 62565,33387 62475.4,33349.9 62475.4,33349.9 62475.4,33349.9 62394.7,33296 62326.1,33227.3 62272.2,33146.7 62235.1,33057 62216.1,32961.9 62216.1,32864.9 62235.1,32769.7 62272.2,32680.1 62326.1,32599.4 62394.7,32530.8 62475.4,32476.9 62565,32439.8 62660.2,32420.9 62757.2,32420.9 Z"/> 
<path style="fill-opacity:1.0; stroke-width:0; stroke-opacity:1; stroke-linecap:round; stroke-linejoin:round;fill-rule:evenodd;" d="M 68030.8,29499.1 68177.8,29560 68177.8,29560 68310,29648.4 68422.5,29760.9 68507.2,29887.6 68510.9,29893.1 68571.7,30040.1 68602.8,30196.1 68602.8,30355.1 68571.7,30511.1 68510.9,30658.1 68510.9,30658.1 68422.5,30790.3 68310,30902.8 68177.8,30991.2 68177.8,30991.2 68177.8,30991.2 68030.8,31052 67874.8,31083.1 67715.7,31083.1 67559.7,31052 67412.8,30991.2 67412.8,30991.2 67412.8,30991.2 67280.5,30902.8 67168.1,30790.3 67079.7,30658.1 67079.7,30658.1 67018.8,30511.1 66987.8,30355.1 66987.8,30196.1 67018.8,30040.1 67079.7,29893.1 67083.4,29887.6 67168.1,29760.9 67280.5,29648.4 67412.8,29560 67412.8,29560 67559.7,29499.1 67715.7,29468.1 67874.8,29468.1 Z"/> 
<path style="fill-opacity:1.0; stroke-width:0; stroke-opacity:1; stroke-linecap:round; stroke-linejoin:round;fill-rule:evenodd;" d="M 55098.8,30728.7 53956.3,30728.7 53956.3,29586.2 55098.8,29586.2 Z"/> 
<path style="fill-opacity:1.0; stroke-width:0; stroke-opacity:1; stroke-linecap:round; stroke-linejoin:round;fill-rule:evenodd;" d="M 56028.9,29292.9 56087.7,29304.6 56152.3,29331.3 56210.4,29370.1 56259.8,29419.5 56298.6,29477.6 56325.3,29542.2 56339,29610.7 56339,29680.6 56325.3,29749.1 56298.6,29813.7 56259.8,29871.8 56210.4,29921.2 56152.3,29960 56087.7,29986.8 56028.9,29998.5 56019.2,30000.4 55949.3,30000.4 55939.6,29998.5 55880.8,29986.8 55816.2,29960 55758.1,29921.2 55708.7,29871.8 55669.9,29813.7 55643.2,29749.1 55629.5,29680.6 55629.5,29610.7 55643.2,29542.2 55669.9,29477.6 55708.7,29419.5 55758.1,29370.1 55816.2,29331.3 55880.8,29304.6 55939.6,29292.9 55949.3,29290.9 56019.2,29290.9 Z"/> 
<path style="fill-opacity:1.0; stroke-width:0; stroke-opacity:1; stroke-linecap:round; stroke-linejoin:round;fill-rule:evenodd;" d="M 65148.6,29167.5 65216.7,29195.8 65216.7,29195.8 65278,29236.7 65330.2,29288.9 65340.7,29304.6 65371.2,29350.2 65399.4,29418.3 65413.8,29490.7 65413.8,29564.4 65399.4,29636.8 65371.2,29704.9 65371.2,29704.9 65330.2,29766.2 65278,29818.4 65247.2,29839 65216.7,29859.4 65148.6,29887.6 65076.2,29902 65002.5,29902 64930.2,29887.6 64862,29859.4 64831.6,29839 64800.7,29818.4 64748.5,29766.2 64707.6,29704.9 64707.6,29704.9 64679.3,29636.8 64665,29564.4 64665,29490.7 64679.3,29418.3 64707.6,29350.2 64738.1,29304.6 64748.5,29288.9 64800.7,29236.7 64862,29195.8 64862,29195.8 64930.2,29167.5 65002.5,29153.1 65076.2,29153.1 Z"/> 
<path style="fill-opacity:1.0; stroke-width:0; stroke-opacity:1; stroke-linecap:round; stroke-linejoin:round;fill-rule:evenodd;" d="M 65148.6,28183.3 65216.7,28211.5 65216.7,28211.5 65278,28252.5 65330.2,28304.6 65330.2,28304.6 65371.2,28366 65399.4,28434.1 65413.8,28506.4 65413.8,28580.2 65399.4,28652.5 65371.2,28720.7 65371.2,28720.7 65330.2,28782 65278,28834.1 65247.2,28854.8 65216.7,28875.1 65148.6,28903.3 65076.2,28917.7 65002.5,28917.7 64930.2,28903.3 64862,28875.1 64831.6,28854.8 64800.7,28834.1 64748.5,28782 64707.6,28720.7 64707.6,28720.7 64679.3,28652.5 64665,28580.2 64665,28506.4 64679.3,28434.1 64707.6,28366 64748.5,28304.6 64748.5,28304.6 64800.7,28252.5 64862,28211.5 64862,28211.5 64930.2,28183.3 65002.5,28168.9 65076.2,28168.9 Z"/> 
<path style="fill-opacity:1.0; stroke-width:0; stroke-opacity:1; stroke-linecap:round; stroke-linejoin:round;fill-rule:evenodd;" d="M 61633.2,27320.4 61639.7,27321.7 61729.4,27358.8 61810,27412.7 61878.6,27481.3 61932.5,27562 61932.5,27562 61969.7,27651.6 61988.6,27746.8 61988.6,27843.8 61973.6,27919.1 61969.7,27938.9 61932.5,28028.6 61878.6,28109.2 61810,28177.8 61729.4,28231.7 61729.4,28231.7 61729.4,28231.7 61639.7,28268.9 61544.6,28287.8 61447.6,28287.8 61352.4,28268.9 61262.8,28231.7 61262.8,28231.7 61262.8,28231.7 61182.1,28177.8 61113.5,28109.2 61059.6,28028.6 61022.5,27938.9 61018.5,27919.1 61003.5,27843.8 61003.5,27746.8 61022.5,27651.6 61059.6,27562 61059.6,27562 61113.5,27481.3 61182.1,27412.7 61262.8,27358.8 61352.4,27321.7 61358.9,27320.4 61447.6,27302.8 61544.6,27302.8 Z"/> 
<path style="fill-opacity:1.0; stroke-width:0; stroke-opacity:1; stroke-linecap:round; stroke-linejoin:round;fill-rule:evenodd;" d="M 65148.6,27199 65216.7,27227.3 65216.7,27227.3 65278,27268.2 65330.2,27320.4 65330.2,27320.4 65371.2,27381.7 65399.4,27449.8 65413.8,27522.2 65413.8,27595.9 65399.4,27668.3 65371.2,27736.4 65364.2,27746.8 65330.2,27797.7 65278,27849.9 65247.2,27870.5 65216.7,27890.9 65148.6,27919.1 65076.2,27933.5 65002.5,27933.5 64930.2,27919.1 64862,27890.9 64831.6,27870.5 64800.7,27849.9 64748.5,27797.7 64714.5,27746.8 64707.6,27736.4 64679.3,27668.3 64665,27595.9 64665,27522.2 64679.3,27449.8 64707.6,27381.7 64748.5,27320.4 64748.5,27320.4 64800.7,27268.2 64862,27227.3 64862,27227.3 64930.2,27199 65002.5,27184.6 65076.2,27184.6 Z"/> 
<path style="fill-opacity:1.0; stroke-width:0; stroke-opacity:1; stroke-linecap:round; stroke-linejoin:round;fill-rule:evenodd;" d="M 58012.2,27697.2 56869.7,27697.2 56869.7,26790.9 58012.2,26790.9 Z"/> 
<path style="fill-opacity:1.0; stroke-width:0; stroke-opacity:1; stroke-linecap:round; stroke-linejoin:round;fill-rule:evenodd;" d="M 68030.8,26034.6 68177.8,26095.4 68177.8,26095.4 68310,26183.8 68422.5,26296.3 68510.9,26428.5 68571.7,26575.5 68602.8,26731.5 68602.8,26890.6 68571.7,27046.6 68514.5,27184.6 68510.9,27193.5 68422.5,27325.8 68310,27438.2 68177.8,27526.6 68177.8,27526.6 68177.8,27526.6 68030.8,27587.5 67874.8,27618.5 67715.7,27618.5 67559.7,27587.5 67412.8,27526.6 67412.8,27526.6 67412.8,27526.6 67280.5,27438.2 67168.1,27325.8 67079.7,27193.5 67076,27184.6 67018.8,27046.6 66987.8,26890.6 66987.8,26731.5 67018.8,26575.5 67079.7,26428.5 67168.1,26296.3 67280.5,26183.8 67412.8,26095.4 67412.8,26095.4 67559.7,26034.6 67715.7,26003.5 67874.8,26003.5 Z"/> 
<path style="fill-opacity:1.0; stroke-width:0; stroke-opacity:1; stroke-linecap:round; stroke-linejoin:round;fill-rule:evenodd;" d="M 56028.9,26537 56087.7,26548.7 56152.3,26575.4 56210.4,26614.2 56259.8,26663.6 56298.6,26721.7 56325.3,26786.3 56339,26854.8 56339,26924.7 56325.3,26993.2 56298.6,27057.8 56259.8,27115.9 56210.4,27165.3 56152.3,27204.1 56087.7,27230.9 56028.9,27242.5 56019.2,27244.5 55949.3,27244.5 55939.6,27242.5 55880.8,27230.9 55816.2,27204.1 55758.1,27165.3 55708.7,27115.9 55669.9,27057.8 55643.2,26993.2 55629.5,26924.7 55629.5,26854.8 55643.2,26786.3 55669.9,26721.7 55708.7,26663.6 55758.1,26614.2 55816.2,26575.4 55880.8,26548.7 55939.6,26537 55949.3,26535 56019.2,26535 Z"/> 
<path style="fill-opacity:1.0; stroke-width:0; stroke-opacity:1; stroke-linecap:round; stroke-linejoin:round;fill-rule:evenodd;" d="M 55098.8,26909.8 53956.3,26909.8 53956.3,26003.5 55098.8,26003.5 Z"/> 
<path style="fill-opacity:1.0; stroke-width:0; stroke-opacity:1; stroke-linecap:round; stroke-linejoin:round;fill-rule:evenodd;" d="M 61639.7,25321.7 61729.4,25358.8 61810,25412.7 61878.6,25481.3 61932.5,25562 61969.7,25651.6 61988.6,25746.8 61988.6,25843.8 61969.7,25938.9 61932.5,26028.6 61878.6,26109.2 61810,26177.8 61729.4,26231.7 61729.4,26231.7 61729.4,26231.7 61639.7,26268.9 61544.6,26287.8 61447.6,26287.8 61352.4,26268.9 61262.8,26231.7 61262.8,26231.7 61262.8,26231.7 61182.1,26177.8 61113.5,26109.2 61059.6,26028.6 61022.5,25938.9 61003.5,25843.8 61003.5,25746.8 61022.5,25651.6 61059.6,25562 61113.5,25481.3 61182.1,25412.7 61262.8,25358.8 61352.4,25321.7 61447.6,25302.8 61544.6,25302.8 Z"/> 
</g> 
</g><g id="substrate-copper" style="fill:#208b47; stroke:#208b47;"><g style="fill-opacity:1; stroke-opacity:1; stroke-linecap:round; stroke-linejoin:round;" transform="translate(0 0) scale(1 1)">
</g>
<g style="fill-opacity:0.0; stroke-width:-0.000393701; stroke-opacity:1; stroke-linecap:round; stroke-linejoin:round;">
<g>
</g>
<g style="fill-opacity:1.0; stroke-width:0; stroke-opacity:1; stroke-linecap:round; stroke-linejoin:round;">
<circle cx="67795.3" cy="30275.6" r="787.402"/> 
</g>
<g style="fill-opacity:1.0; stroke-width:59.0551; stroke-opacity:1; stroke-linecap:round; stroke-linejoin:round;">
</g>
<g style="fill-opacity:1.0; stroke-width:0; stroke-opacity:1; stroke-linecap:round; stroke-linejoin:round;">
<circle cx="67795.3" cy="26811" r="787.402"/> 
</g>
<g style="fill-opacity:1.0; stroke-width:59.0551; stroke-opacity:1; stroke-linecap:round; stroke-linejoin:round;">
</g>
<g style="fill-opacity:1.0; stroke-width:0; stroke-opacity:1; stroke-linecap:round; stroke-linejoin:round;">
<circle cx="65039.4" cy="29527.6" r="354.331"/> 
</g>
<g style="fill-opacity:1.0; stroke-width:59.0551; stroke-opacity:1; stroke-linecap:round; stroke-linejoin:round;">
</g>
<g style="fill-opacity:1.0; stroke-width:0; stroke-opacity:1; stroke-linecap:round; stroke-linejoin:round;">
<circle cx="65039.4" cy="28543.3" r="354.331"/> 
</g>
<g style="fill-opacity:1.0; stroke-width:59.0551; stroke-opacity:1; stroke-linecap:round; stroke-linejoin:round;">
</g>
<g style="fill-opacity:1.0; stroke-width:0; stroke-opacity:1; stroke-linecap:round; stroke-linejoin:round;">
<circle cx="65039.4" cy="27559.1" r="354.331"/> 
</g>
<g style="fill-opacity:1.0; stroke-width:59.0551; stroke-opacity:1; stroke-linecap:round; stroke-linejoin:round;">
</g>
<g>
</g>
<g style="fill-opacity:1.0; stroke-width:59.0551; stroke-opacity:1; stroke-linecap:round; stroke-linejoin:round;">
</g>
<g style="fill-opacity:1.0; stroke-width:944.882; stroke-opacity:1; stroke-linecap:round; stroke-linejoin:round;">
</g>
<g style="fill-opacity:0.0; stroke-width:944.882; stroke-opacity:1; stroke-linecap:round; stroke-linejoin:round;">
<path d="M61496 25795 L61496 25795 "/>
</g>
<g style="fill-opacity:1.0; stroke-width:0; stroke-opacity:1; stroke-linecap:round; stroke-linejoin:round;">
<circle cx="61496.1" cy="27795.3" r="472.441"/> 
</g>
<g style="fill-opacity:1.0; stroke-width:59.0551; stroke-opacity:1; stroke-linecap:round; stroke-linejoin:round;">
</g>
<g>
</g>
<g style="fill-opacity:1.0; stroke-width:59.0551; stroke-opacity:1; stroke-linecap:round; stroke-linejoin:round;">
</g>
<g style="fill-opacity:1.0; stroke-width:944.882; stroke-opacity:1; stroke-linecap:round; stroke-linejoin:round;">
</g>
<g style="fill-opacity:0.0; stroke-width:944.882; stroke-opacity:1; stroke-linecap:round; stroke-linejoin:round;">
<path d="M62708 32913 L62708 32913 "/>
</g>
<g style="fill-opacity:1.0; stroke-width:0; stroke-opacity:1; stroke-linecap:round; stroke-linejoin:round;">
<circle cx="60708.7" cy="32913.4" r="472.441"/> 
</g>
<g style="fill-opacity:1.0; stroke-width:59.0551; stroke-opacity:1; stroke-linecap:round; stroke-linejoin:round;">
</g>
<g>
</g>
<g style="fill-opacity:1.0; stroke-width:59.0551; stroke-opacity:1; stroke-linecap:round; stroke-linejoin:round;">
</g>
<g style="fill-opacity:1.0; stroke-width:0; stroke-opacity:1; stroke-linecap:round; stroke-linejoin:round;">
<path style="fill-opacity:1.0; stroke-width:0; stroke-opacity:1; stroke-linecap:round; stroke-linejoin:round;fill-rule:evenodd;" d="M 53976.4,30708.7 53976.4,29606.3 55078.7,29606.3 55078.7,30708.7 Z"/> 
<path style="fill-opacity:1.0; stroke-width:0; stroke-opacity:1; stroke-linecap:round; stroke-linejoin:round;fill-rule:evenodd;" d="M 53976.4,26889.8 53976.4,26023.6 55078.7,26023.6 55078.7,26889.8 Z"/> 
<path style="fill-opacity:1.0; stroke-width:0; stroke-opacity:1; stroke-linecap:round; stroke-linejoin:round;fill-rule:evenodd;" d="M 56889.8,27677.2 56889.8,26811 57992.1,26811 57992.1,27677.2 Z"/> 
</g>
<g>
</g>
<g>
</g>
<g style="fill-opacity:1.0; stroke-width:0; stroke-opacity:1; stroke-linecap:round; stroke-linejoin:round;">
</g>
<g style="fill-opacity:1.0; stroke-width:98.4252; stroke-opacity:1; stroke-linecap:round; stroke-linejoin:round;">
</g>
<g style="fill-opacity:0.0; stroke-width:98.4252; stroke-opacity:1; stroke-linecap:round; stroke-linejoin:round;">
<path d="M54527 29507 L54527 30157 "/>
<path d="M55492 28543 L54527 29507 "/>
<path d="M65039 28543 L55492 28543 "/>
<path d="M54527 25925 L54527 26456 "/>
<path d="M54783 25669 L54527 25925 "/>
<path d="M61574 25669 L54783 25669 "/>
<path d="M60708 32913 L61535 32086 "/>
<path d="M62480 32086 L65039 29527 "/>
<path d="M61535 32086 L62480 32086 "/>
<path d="M61648 25846 L61496 25846 "/>
<path d="M63326 25846 L61648 25846 "/>
<path d="M65039 27559 L63326 25846 "/>
</g>
<g>
</g>
</g>
<g style="fill-opacity:0.0; stroke-width:98.4252; stroke-opacity:1; stroke-linecap:round; stroke-linejoin:round;">
</g>
<g style="fill-opacity:1.0; stroke-width:0; stroke-opacity:1; stroke-linecap:round; stroke-linejoin:round;">
<circle cx="67795.3" cy="30275.6" r="68.8976"/> 
</g>
<g style="fill-opacity:1.0; stroke-width:59.0551; stroke-opacity:1; stroke-linecap:round; stroke-linejoin:round;">
</g>
<g style="fill-opacity:1.0; stroke-width:0; stroke-opacity:1; stroke-linecap:round; stroke-linejoin:round;">
<circle cx="67795.3" cy="26811" r="68.8976"/> 
</g>
<g style="fill-opacity:1.0; stroke-width:59.0551; stroke-opacity:1; stroke-linecap:round; stroke-linejoin:round;">
</g>
<g style="fill-opacity:1.0; stroke-width:0; stroke-opacity:1; stroke-linecap:round; stroke-linejoin:round;">
<circle cx="65039.4" cy="29527.6" r="68.8976"/> 
</g>
<g style="fill-opacity:1.0; stroke-width:59.0551; stroke-opacity:1; stroke-linecap:round; stroke-linejoin:round;">
</g>
<g style="fill-opacity:1.0; stroke-width:0; stroke-opacity:1; stroke-linecap:round; stroke-linejoin:round;">
<circle cx="65039.4" cy="28543.3" r="68.8976"/> 
</g>
<g style="fill-opacity:1.0; stroke-width:59.0551; stroke-opacity:1; stroke-linecap:round; stroke-linejoin:round;">
</g>
<g style="fill-opacity:1.0; stroke-width:0; stroke-opacity:1; stroke-linecap:round; stroke-linejoin:round;">
<circle cx="65039.4" cy="27559.1" r="68.8976"/> 
</g>
<g style="fill-opacity:1.0; stroke-width:59.0551; stroke-opacity:1; stroke-linecap:round; stroke-linejoin:round;">
</g>
<g style="fill-opacity:1.0; stroke-width:0; stroke-opacity:1; stroke-linecap:round; stroke-linejoin:round;">
<circle cx="61496.1" cy="25795.3" r="68.8976"/> 
</g>
<g style="fill-opacity:1.0; stroke-width:59.0551; stroke-opacity:1; stroke-linecap:round; stroke-linejoin:round;">
</g>
<g style="fill-opacity:1.0; stroke-width:0; stroke-opacity:1; stroke-linecap:round; stroke-linejoin:round;">
<circle cx="61496.1" cy="27795.3" r="68.8976"/> 
</g>
<g style="fill-opacity:1.0; stroke-width:59.0551; stroke-opacity:1; stroke-linecap:round; stroke-linejoin:round;">
</g>
<g style="fill-opacity:1.0; stroke-width:0; stroke-opacity:1; stroke-linecap:round; stroke-linejoin:round;">
<circle cx="62708.7" cy="32913.4" r="68.8976"/> 
</g>
<g style="fill-opacity:1.0; stroke-width:59.0551; stroke-opacity:1; stroke-linecap:round; stroke-linejoin:round;">
</g>
<g style="fill-opacity:1.0; stroke-width:0; stroke-opacity:1; stroke-linecap:round; stroke-linejoin:round;">
<circle cx="60708.7" cy="32913.4" r="68.8976"/> 
</g>
<g style="fill-opacity:1.0; stroke-width:59.0551; stroke-opacity:1; stroke-linecap:round; stroke-linejoin:round;">
</g>
<g style="fill-opacity:1.0; stroke-width:0; stroke-opacity:1; stroke-linecap:round; stroke-linejoin:round;">
<circle cx="55984.3" cy="29645.7" r="68.8976"/> 
</g>
<g style="fill-opacity:1.0; stroke-width:59.0551; stroke-opacity:1; stroke-linecap:round; stroke-linejoin:round;">
</g>
<g style="fill-opacity:1.0; stroke-width:0; stroke-opacity:1; stroke-linecap:round; stroke-linejoin:round;">
<circle cx="55984.3" cy="26889.8" r="68.8976"/> 
</g>
<g style="fill-opacity:1.0; stroke-width:59.0551; stroke-opacity:1; stroke-linecap:round; stroke-linejoin:round;">
</g>
<g style="fill-opacity:1.0; stroke-width:59.0551; stroke-opacity:1; stroke-linecap:round; stroke-linejoin:round;">
</g> 
</g><g id="substrate-pads" style="fill:#bfba9e; stroke:#bfba9e;" mask="url(#pads-mask)"><g style="fill-opacity:1; stroke-opacity:1; stroke-linecap:round; stroke-linejoin:round;" transform="translate(0 0) scale(1 1)">
</g>
<g style="fill-opacity:0.0; stroke-width:-0.000393701; stroke-opacity:1; stroke-linecap:round; stroke-linejoin:round;">
<g>
</g>
<g style="fill-opacity:1.0; stroke-width:0; stroke-opacity:1; stroke-linecap:round; stroke-linejoin:round;">
<circle cx="67795.3" cy="30275.6" r="787.402"/> 
</g>
<g style="fill-opacity:1.0; stroke-width:59.0551; stroke-opacity:1; stroke-linecap:round; stroke-linejoin:round;">
</g>
<g style="fill-opacity:1.0; stroke-width:0; stroke-opacity:1; stroke-linecap:round; stroke-linejoin:round;">
<circle cx="67795.3" cy="26811" r="787.402"/> 
</g>
<g style="fill-opacity:1.0; stroke-width:59.0551; stroke-opacity:1; stroke-linecap:round; stroke-linejoin:round;">
</g>
<g style="fill-opacity:1.0; stroke-width:0; stroke-opacity:1; stroke-linecap:round; stroke-linejoin:round;">
<circle cx="65039.4" cy="29527.6" r="354.331"/> 
</g>
<g style="fill-opacity:1.0; stroke-width:59.0551; stroke-opacity:1; stroke-linecap:round; stroke-linejoin:round;">
</g>
<g style="fill-opacity:1.0; stroke-width:0; stroke-opacity:1; stroke-linecap:round; stroke-linejoin:round;">
<circle cx="65039.4" cy="28543.3" r="354.331"/> 
</g>
<g style="fill-opacity:1.0; stroke-width:59.0551; stroke-opacity:1; stroke-linecap:round; stroke-linejoin:round;">
</g>
<g style="fill-opacity:1.0; stroke-width:0; stroke-opacity:1; stroke-linecap:round; stroke-linejoin:round;">
<circle cx="65039.4" cy="27559.1" r="354.331"/> 
</g>
<g style="fill-opacity:1.0; stroke-width:59.0551; stroke-opacity:1; stroke-linecap:round; stroke-linejoin:round;">
</g>
<g>
</g>
<g style="fill-opacity:1.0; stroke-width:59.0551; stroke-opacity:1; stroke-linecap:round; stroke-linejoin:round;">
</g>
<g style="fill-opacity:1.0; stroke-width:944.882; stroke-opacity:1; stroke-linecap:round; stroke-linejoin:round;">
</g>
<g style="fill-opacity:0.0; stroke-width:944.882; stroke-opacity:1; stroke-linecap:round; stroke-linejoin:round;">
<path d="M61496 25795 L61496 25795 "/>
</g>
<g style="fill-opacity:1.0; stroke-width:0; stroke-opacity:1; stroke-linecap:round; stroke-linejoin:round;">
<circle cx="61496.1" cy="27795.3" r="472.441"/> 
</g>
<g style="fill-opacity:1.0; stroke-width:59.0551; stroke-opacity:1; stroke-linecap:round; stroke-linejoin:round;">
</g>
<g>
</g>
<g style="fill-opacity:1.0; stroke-width:59.0551; stroke-opacity:1; stroke-linecap:round; stroke-linejoin:round;">
</g>
<g style="fill-opacity:1.0; stroke-width:944.882; stroke-opacity:1; stroke-linecap:round; stroke-linejoin:round;">
</g>
<g style="fill-opacity:0.0; stroke-width:944.882; stroke-opacity:1; stroke-linecap:round; stroke-linejoin:round;">
<path d="M62708 32913 L62708 32913 "/>
</g>
<g style="fill-opacity:1.0; stroke-width:0; stroke-opacity:1; stroke-linecap:round; stroke-linejoin:round;">
<circle cx="60708.7" cy="32913.4" r="472.441"/> 
</g>
<g style="fill-opacity:1.0; stroke-width:59.0551; stroke-opacity:1; stroke-linecap:round; stroke-linejoin:round;">
</g>
<g>
</g>
<g style="fill-opacity:1.0; stroke-width:59.0551; stroke-opacity:1; stroke-linecap:round; stroke-linejoin:round;">
</g>
<g style="fill-opacity:1.0; stroke-width:0; stroke-opacity:1; stroke-linecap:round; stroke-linejoin:round;">
<path style="fill-opacity:1.0; stroke-width:0; stroke-opacity:1; stroke-linecap:round; stroke-linejoin:round;fill-rule:evenodd;" d="M 53976.4,30708.7 53976.4,29606.3 55078.7,29606.3 55078.7,30708.7 Z"/> 
<path style="fill-opacity:1.0; stroke-width:0; stroke-opacity:1; stroke-linecap:round; stroke-linejoin:round;fill-rule:evenodd;" d="M 53976.4,26889.8 53976.4,26023.6 55078.7,26023.6 55078.7,26889.8 Z"/> 
<path style="fill-opacity:1.0; stroke-width:0; stroke-opacity:1; stroke-linecap:round; stroke-linejoin:round;fill-rule:evenodd;" d="M 56889.8,27677.2 56889.8,26811 57992.1,26811 57992.1,27677.2 Z"/> 
</g>
<g>
</g>
<g>
</g>
<g style="fill-opacity:1.0; stroke-width:0; stroke-opacity:1; stroke-linecap:round; stroke-linejoin:round;">
</g>
<g style="fill-opacity:1.0; stroke-width:98.4252; stroke-opacity:1; stroke-linecap:round; stroke-linejoin:round;">
</g>
<g style="fill-opacity:0.0; stroke-width:98.4252; stroke-opacity:1; stroke-linecap:round; stroke-linejoin:round;">
<path d="M54527 29507 L54527 30157 "/>
<path d="M55492 28543 L54527 29507 "/>
<path d="M65039 28543 L55492 28543 "/>
<path d="M54527 25925 L54527 26456 "/>
<path d="M54783 25669 L54527 25925 "/>
<path d="M61574 25669 L54783 25669 "/>
<path d="M60708 32913 L61535 32086 "/>
<path d="M62480 32086 L65039 29527 "/>
<path d="M61535 32086 L62480 32086 "/>
<path d="M61648 25846 L61496 25846 "/>
<path d="M63326 25846 L61648 25846 "/>
<path d="M65039 27559 L63326 25846 "/>
</g>
<g>
</g>
</g>
<g style="fill-opacity:0.0; stroke-width:98.4252; stroke-opacity:1; stroke-linecap:round; stroke-linejoin:round;">
</g>
<g style="fill-opacity:1.0; stroke-width:0; stroke-opacity:1; stroke-linecap:round; stroke-linejoin:round;">
<circle cx="67795.3" cy="30275.6" r="68.8976"/> 
</g>
<g style="fill-opacity:1.0; stroke-width:59.0551; stroke-opacity:1; stroke-linecap:round; stroke-linejoin:round;">
</g>
<g style="fill-opacity:1.0; stroke-width:0; stroke-opacity:1; stroke-linecap:round; stroke-linejoin:round;">
<circle cx="67795.3" cy="26811" r="68.8976"/> 
</g>
<g style="fill-opacity:1.0; stroke-width:59.0551; stroke-opacity:1; stroke-linecap:round; stroke-linejoin:round;">
</g>
<g style="fill-opacity:1.0; stroke-width:0; stroke-opacity:1; stroke-linecap:round; stroke-linejoin:round;">
<circle cx="65039.4" cy="29527.6" r="68.8976"/> 
</g>
<g style="fill-opacity:1.0; stroke-width:59.0551; stroke-opacity:1; stroke-linecap:round; stroke-linejoin:round;">
</g>
<g style="fill-opacity:1.0; stroke-width:0; stroke-opacity:1; stroke-linecap:round; stroke-linejoin:round;">
<circle cx="65039.4" cy="28543.3" r="68.8976"/> 
</g>
<g style="fill-opacity:1.0; stroke-width:59.0551; stroke-opacity:1; stroke-linecap:round; stroke-linejoin:round;">
</g>
<g style="fill-opacity:1.0; stroke-width:0; stroke-opacity:1; stroke-linecap:round; stroke-linejoin:round;">
<circle cx="65039.4" cy="27559.1" r="68.8976"/> 
</g>
<g style="fill-opacity:1.0; stroke-width:59.0551; stroke-opacity:1; stroke-linecap:round; stroke-linejoin:round;">
</g>
<g style="fill-opacity:1.0; stroke-width:0; stroke-opacity:1; stroke-linecap:round; stroke-linejoin:round;">
<circle cx="61496.1" cy="25795.3" r="68.8976"/> 
</g>
<g style="fill-opacity:1.0; stroke-width:59.0551; stroke-opacity:1; stroke-linecap:round; stroke-linejoin:round;">
</g>
<g style="fill-opacity:1.0; stroke-width:0; stroke-opacity:1; stroke-linecap:round; stroke-linejoin:round;">
<circle cx="61496.1" cy="27795.3" r="68.8976"/> 
</g>
<g style="fill-opacity:1.0; stroke-width:59.0551; stroke-opacity:1; stroke-linecap:round; stroke-linejoin:round;">
</g>
<g style="fill-opacity:1.0; stroke-width:0; stroke-opacity:1; stroke-linecap:round; stroke-linejoin:round;">
<circle cx="62708.7" cy="32913.4" r="68.8976"/> 
</g>
<g style="fill-opacity:1.0; stroke-width:59.0551; stroke-opacity:1; stroke-linecap:round; stroke-linejoin:round;">
</g>
<g style="fill-opacity:1.0; stroke-width:0; stroke-opacity:1; stroke-linecap:round; stroke-linejoin:round;">
<circle cx="60708.7" cy="32913.4" r="68.8976"/> 
</g>
<g style="fill-opacity:1.0; stroke-width:59.0551; stroke-opacity:1; stroke-linecap:round; stroke-linejoin:round;">
</g>
<g style="fill-opacity:1.0; stroke-width:0; stroke-opacity:1; stroke-linecap:round; stroke-linejoin:round;">
<circle cx="55984.3" cy="29645.7" r="68.8976"/> 
</g>
<g style="fill-opacity:1.0; stroke-width:59.0551; stroke-opacity:1; stroke-linecap:round; stroke-linejoin:round;">
</g>
<g style="fill-opacity:1.0; stroke-width:0; stroke-opacity:1; stroke-linecap:round; stroke-linejoin:round;">
<circle cx="55984.3" cy="26889.8" r="68.8976"/> 
</g>
<g style="fill-opacity:1.0; stroke-width:59.0551; stroke-opacity:1; stroke-linecap:round; stroke-linejoin:round;">
</g>
<g style="fill-opacity:1.0; stroke-width:59.0551; stroke-opacity:1; stroke-linecap:round; stroke-linejoin:round;">
</g> 
</g><defs><mask id="pads-mask"><g style="fill:#ffffff; fill-opacity:1;stroke:#ffffff; stroke-opacity:1; stroke-linecap:round; stroke-linejoin:round;" transform="translate(0 0) scale(1 1)">
</g>
<g style="fill:#ffffff; fill-opacity:0.0;  stroke:#ffffff; stroke-width:-0.000393701; stroke-opacity:1;  stroke-linecap:round; stroke-linejoin:round;">
</g>
<g style="fill:#ffffff; fill-opacity:1.0;  stroke:#ffffff; stroke-width:0; stroke-opacity:1;  stroke-linecap:round; stroke-linejoin:round;">
<path style="fill:#ffffff; fill-opacity:1.0;  stroke:#ffffff; stroke-width:0; stroke-opacity:1;  stroke-linecap:round; stroke-linejoin:round;fill-rule:evenodd;" d="M 60852.3,32439.8 60942,32476.9 61022.6,32530.8 61091.2,32599.4 61145.1,32680.1 61182.3,32769.7 61201.2,32864.9 61201.2,32961.9 61182.3,33057 61145.1,33146.7 61091.2,33227.3 61022.6,33296 60942,33349.9 60942,33349.9 60942,33349.9 60852.3,33387 60757.2,33405.9 60660.2,33405.9 60565,33387 60475.4,33349.9 60475.4,33349.9 60475.4,33349.9 60394.7,33296 60326.1,33227.3 60272.2,33146.7 60235.1,33057 60216.1,32961.9 60216.1,32864.9 60235.1,32769.7 60272.2,32680.1 60326.1,32599.4 60394.7,32530.8 60475.4,32476.9 60565,32439.8 60660.2,32420.9 60757.2,32420.9 Z"/> 
<path style="fill:#ffffff; fill-opacity:1.0;  stroke:#ffffff; stroke-width:0; stroke-opacity:1;  stroke-linecap:round; stroke-linejoin:round;fill-rule:evenodd;" d="M 62852.3,32439.8 62942,32476.9 63022.6,32530.8 63091.2,32599.4 63145.1,32680.1 63182.3,32769.7 63201.2,32864.9 63201.2,32961.9 63182.3,33057 63145.1,33146.7 63091.2,33227.3 63022.6,33296 62942,33349.9 62942,33349.9 62942,33349.9 62852.3,33387 62757.2,33405.9 62660.2,33405.9 62565,33387 62475.4,33349.9 62475.4,33349.9 62475.4,33349.9 62394.7,33296 62326.1,33227.3 62272.2,33146.7 62235.1,33057 62216.1,32961.9 62216.1,32864.9 62235.1,32769.7 62272.2,32680.1 62326.1,32599.4 62394.7,32530.8 62475.4,32476.9 62565,32439.8 62660.2,32420.9 62757.2,32420.9 Z"/> 
<path style="fill:#ffffff; fill-opacity:1.0;  stroke:#ffffff; stroke-width:0; stroke-opacity:1;  stroke-linecap:round; stroke-linejoin:round;fill-rule:evenodd;" d="M 68030.8,29499.1 68177.8,29560 68177.8,29560 68310,29648.4 68422.5,29760.9 68507.2,29887.6 68510.9,29893.1 68571.7,30040.1 68602.8,30196.1 68602.8,30355.1 68571.7,30511.1 68510.9,30658.1 68510.9,30658.1 68422.5,30790.3 68310,30902.8 68177.8,30991.2 68177.8,30991.2 68177.8,30991.2 68030.8,31052 67874.8,31083.1 67715.7,31083.1 67559.7,31052 67412.8,30991.2 67412.8,30991.2 67412.8,30991.2 67280.5,30902.8 67168.1,30790.3 67079.7,30658.1 67079.7,30658.1 67018.8,30511.1 66987.8,30355.1 66987.8,30196.1 67018.8,30040.1 67079.7,29893.1 67083.4,29887.6 67168.1,29760.9 67280.5,29648.4 67412.8,29560 67412.8,29560 67559.7,29499.1 67715.7,29468.1 67874.8,29468.1 Z"/> 
<path style="fill:#ffffff; fill-opacity:1.0;  stroke:#ffffff; stroke-width:0; stroke-opacity:1;  stroke-linecap:round; stroke-linejoin:round;fill-rule:evenodd;" d="M 55098.8,30728.7 53956.3,30728.7 53956.3,29586.2 55098.8,29586.2 Z"/> 
<path style="fill:#ffffff; fill-opacity:1.0;  stroke:#ffffff; stroke-width:0; stroke-opacity:1;  stroke-linecap:round; stroke-linejoin:round;fill-rule:evenodd;" d="M 56028.9,29292.9 56087.7,29304.6 56152.3,29331.3 56210.4,29370.1 56259.8,29419.5 56298.6,29477.6 56325.3,29542.2 56339,29610.7 56339,29680.6 56325.3,29749.1 56298.6,29813.7 56259.8,29871.8 56210.4,29921.2 56152.3,29960 56087.7,29986.8 56028.9,29998.5 56019.2,30000.4 55949.3,30000.4 55939.6,29998.5 55880.8,29986.8 55816.2,29960 55758.1,29921.2 55708.7,29871.8 55669.9,29813.7 55643.2,29749.1 55629.5,29680.6 55629.5,29610.7 55643.2,29542.2 55669.9,29477.6 55708.7,29419.5 55758.1,29370.1 55816.2,29331.3 55880.8,29304.6 55939.6,29292.9 55949.3,29290.9 56019.2,29290.9 Z"/> 
<path style="fill:#ffffff; fill-opacity:1.0;  stroke:#ffffff; stroke-width:0; stroke-opacity:1;  stroke-linecap:round; stroke-linejoin:round;fill-rule:evenodd;" d="M 65148.6,29167.5 65216.7,29195.8 65216.7,29195.8 65278,29236.7 65330.2,29288.9 65340.7,29304.6 65371.2,29350.2 65399.4,29418.3 65413.8,29490.7 65413.8,29564.4 65399.4,29636.8 65371.2,29704.9 65371.2,29704.9 65330.2,29766.2 65278,29818.4 65247.2,29839 65216.7,29859.4 65148.6,29887.6 65076.2,29902 65002.5,29902 64930.2,29887.6 64862,29859.4 64831.6,29839 64800.7,29818.4 64748.5,29766.2 64707.6,29704.9 64707.6,29704.9 64679.3,29636.8 64665,29564.4 64665,29490.7 64679.3,29418.3 64707.6,29350.2 64738.1,29304.6 64748.5,29288.9 64800.7,29236.7 64862,29195.8 64862,29195.8 64930.2,29167.5 65002.5,29153.1 65076.2,29153.1 Z"/> 
<path style="fill:#ffffff; fill-opacity:1.0;  stroke:#ffffff; stroke-width:0; stroke-opacity:1;  stroke-linecap:round; stroke-linejoin:round;fill-rule:evenodd;" d="M 65148.6,28183.3 65216.7,28211.5 65216.7,28211.5 65278,28252.5 65330.2,28304.6 65330.2,28304.6 65371.2,28366 65399.4,28434.1 65413.8,28506.4 65413.8,28580.2 65399.4,28652.5 65371.2,28720.7 65371.2,28720.7 65330.2,28782 65278,28834.1 65247.2,28854.8 65216.7,28875.1 65148.6,28903.3 65076.2,28917.7 65002.5,28917.7 64930.2,28903.3 64862,28875.1 64831.6,28854.8 64800.7,28834.1 64748.5,28782 64707.6,28720.7 64707.6,28720.7 64679.3,28652.5 64665,28580.2 64665,28506.4 64679.3,28434.1 64707.6,28366 64748.5,28304.6 64748.5,28304.6 64800.7,28252.5 64862,28211.5 64862,28211.5 64930.2,28183.3 65002.5,28168.9 65076.2,28168.9 Z"/> 
<path style="fill:#ffffff; fill-opacity:1.0;  stroke:#ffffff; stroke-width:0; stroke-opacity:1;  stroke-linecap:round; stroke-linejoin:round;fill-rule:evenodd;" d="M 61633.2,27320.4 61639.7,27321.7 61729.4,27358.8 61810,27412.7 61878.6,27481.3 61932.5,27562 61932.5,27562 61969.7,27651.6 61988.6,27746.8 61988.6,27843.8 61973.6,27919.1 61969.7,27938.9 61932.5,28028.6 61878.6,28109.2 61810,28177.8 61729.4,28231.7 61729.4,28231.7 61729.4,28231.7 61639.7,28268.9 61544.6,28287.8 61447.6,28287.8 61352.4,28268.9 61262.8,28231.7 61262.8,28231.7 61262.8,28231.7 61182.1,28177.8 61113.5,28109.2 61059.6,28028.6 61022.5,27938.9 61018.5,27919.1 61003.5,27843.8 61003.5,27746.8 61022.5,27651.6 61059.6,27562 61059.6,27562 61113.5,27481.3 61182.1,27412.7 61262.8,27358.8 61352.4,27321.7 61358.9,27320.4 61447.6,27302.8 61544.6,27302.8 Z"/> 
<path style="fill:#ffffff; fill-opacity:1.0;  stroke:#ffffff; stroke-width:0; stroke-opacity:1;  stroke-linecap:round; stroke-linejoin:round;fill-rule:evenodd;" d="M 65148.6,27199 65216.7,27227.3 65216.7,27227.3 65278,27268.2 65330.2,27320.4 65330.2,27320.4 65371.2,27381.7 65399.4,27449.8 65413.8,27522.2 65413.8,27595.9 65399.4,27668.3 65371.2,27736.4 65364.2,27746.8 65330.2,27797.7 65278,27849.9 65247.2,27870.5 65216.7,27890.9 65148.6,27919.1 65076.2,27933.5 65002.5,27933.5 64930.2,27919.1 64862,27890.9 64831.6,27870.5 64800.7,27849.9 64748.5,27797.7 64714.5,27746.8 64707.6,27736.4 64679.3,27668.3 64665,27595.9 64665,27522.2 64679.3,27449.8 64707.6,27381.7 64748.5,27320.4 64748.5,27320.4 64800.7,27268.2 64862,27227.3 64862,27227.3 64930.2,27199 65002.5,27184.6 65076.2,27184.6 Z"/> 
<path style="fill:#ffffff; fill-opacity:1.0;  stroke:#ffffff; stroke-width:0; stroke-opacity:1;  stroke-linecap:round; stroke-linejoin:round;fill-rule:evenodd;" d="M 58012.2,27697.2 56869.7,27697.2 56869.7,26790.9 58012.2,26790.9 Z"/> 
<path style="fill:#ffffff; fill-opacity:1.0;  stroke:#ffffff; stroke-width:0; stroke-opacity:1;  stroke-linecap:round; stroke-linejoin:round;fill-rule:evenodd;" d="M 68030.8,26034.6 68177.8,26095.4 68177.8,26095.4 68310,26183.8 68422.5,26296.3 68510.9,26428.5 68571.7,26575.5 68602.8,26731.5 68602.8,26890.6 68571.7,27046.6 68514.5,27184.6 68510.9,27193.5 68422.5,27325.8 68310,27438.2 68177.8,27526.6 68177.8,27526.6 68177.8,27526.6 68030.8,27587.5 67874.8,27618.5 67715.7,27618.5 67559.7,27587.5 67412.8,27526.6 67412.8,27526.6 67412.8,27526.6 67280.5,27438.2 67168.1,27325.8 67079.7,27193.5 67076,27184.6 67018.8,27046.6 66987.8,26890.6 66987.8,26731.5 67018.8,26575.5 67079.7,26428.5 67168.1,26296.3 67280.5,26183.8 67412.8,26095.4 67412.8,26095.4 67559.7,26034.6 67715.7,26003.5 67874.8,26003.5 Z"/> 
<path style="fill:#ffffff; fill-opacity:1.0;  stroke:#ffffff; stroke-width:0; stroke-opacity:1;  stroke-linecap:round; stroke-linejoin:round;fill-rule:evenodd;" d="M 56028.9,26537 56087.7,26548.7 56152.3,26575.4 56210.4,26614.2 56259.8,26663.6 56298.6,26721.7 56325.3,26786.3 56339,26854.8 56339,26924.7 56325.3,26993.2 56298.6,27057.8 56259.8,27115.9 56210.4,27165.3 56152.3,27204.1 56087.7,27230.9 56028.9,27242.5 56019.2,27244.5 55949.3,27244.5 55939.6,27242.5 55880.8,27230.9 55816.2,27204.1 55758.1,27165.3 55708.7,27115.9 55669.9,27057.8 55643.2,26993.2 55629.5,26924.7 55629.5,26854.8 55643.2,26786.3 55669.9,26721.7 55708.7,26663.6 55758.1,26614.2 55816.2,26575.4 55880.8,26548.7 55939.6,26537 55949.3,26535 56019.2,26535 Z"/> 
<path style="fill:#ffffff; fill-opacity:1.0;  stroke:#ffffff; stroke-width:0; stroke-opacity:1;  stroke-linecap:round; stroke-linejoin:round;fill-rule:evenodd;" d="M 55098.8,26909.8 53956.3,26909.8 53956.3,26003.5 55098.8,26003.5 Z"/> 
<path style="fill:#ffffff; fill-opacity:1.0;  stroke:#ffffff; stroke-width:0; stroke-opacity:1;  stroke-linecap:round; stroke-linejoin:round;fill-rule:evenodd;" d="M 61639.7,25321.7 61729.4,25358.8 61810,25412.7 61878.6,25481.3 61932.5,25562 61969.7,25651.6 61988.6,25746.8 61988.6,25843.8 61969.7,25938.9 61932.5,26028.6 61878.6,26109.2 61810,26177.8 61729.4,26231.7 61729.4,26231.7 61729.4,26231.7 61639.7,26268.9 61544.6,26287.8 61447.6,26287.8 61352.4,26268.9 61262.8,26231.7 61262.8,26231.7 61262.8,26231.7 61182.1,26177.8 61113.5,26109.2 61059.6,26028.6 61022.5,25938.9 61003.5,25843.8 61003.5,25746.8 61022.5,25651.6 61059.6,25562 61113.5,25481.3 61182.1,25412.7 61262.8,25358.8 61352.4,25321.7 61447.6,25302.8 61544.6,25302.8 Z"/> 
</g> 
</mask></defs><defs><mask id="pads-mask-silkscreen"><g style="fill:#000000; fill-opacity:1;stroke:#000000; stroke-opacity:1; stroke-linecap:round; stroke-linejoin:round;" transform="translate(0 0) scale(1 1)">
</g>
<g style="fill:#000000; fill-opacity:0.0;  stroke:#000000; stroke-width:-0.000393701; stroke-opacity:1;  stroke-linecap:round; stroke-linejoin:round;">
</g>
<g style="fill:#000000; fill-opacity:1.0;  stroke:#000000; stroke-width:0; stroke-opacity:1;  stroke-linecap:round; stroke-linejoin:round;">
<path style="fill:#000000; fill-opacity:1.0;  stroke:#000000; stroke-width:0; stroke-opacity:1;  stroke-linecap:round; stroke-linejoin:round;fill-rule:evenodd;" d="M 60852.3,32439.8 60942,32476.9 61022.6,32530.8 61091.2,32599.4 61145.1,32680.1 61182.3,32769.7 61201.2,32864.9 61201.2,32961.9 61182.3,33057 61145.1,33146.7 61091.2,33227.3 61022.6,33296 60942,33349.9 60942,33349.9 60942,33349.9 60852.3,33387 60757.2,33405.9 60660.2,33405.9 60565,33387 60475.4,33349.9 60475.4,33349.9 60475.4,33349.9 60394.7,33296 60326.1,33227.3 60272.2,33146.7 60235.1,33057 60216.1,32961.9 60216.1,32864.9 60235.1,32769.7 60272.2,32680.1 60326.1,32599.4 60394.7,32530.8 60475.4,32476.9 60565,32439.8 60660.2,32420.9 60757.2,32420.9 Z"/> 
<path style="fill:#000000; fill-opacity:1.0;  stroke:#000000; stroke-width:0; stroke-opacity:1;  stroke-linecap:round; stroke-linejoin:round;fill-rule:evenodd;" d="M 62852.3,32439.8 62942,32476.9 63022.6,32530.8 63091.2,32599.4 63145.1,32680.1 63182.3,32769.7 63201.2,32864.9 63201.2,32961.9 63182.3,33057 63145.1,33146.7 63091.2,33227.3 63022.6,33296 62942,33349.9 62942,33349.9 62942,33349.9 62852.3,33387 62757.2,33405.9 62660.2,33405.9 62565,33387 62475.4,33349.9 62475.4,33349.9 62475.4,33349.9 62394.7,33296 62326.1,33227.3 62272.2,33146.7 62235.1,33057 62216.1,32961.9 62216.1,32864.9 62235.1,32769.7 62272.2,32680.1 62326.1,32599.4 62394.7,32530.8 62475.4,32476.9 62565,32439.8 62660.2,32420.9 62757.2,32420.9 Z"/> 
<path style="fill:#000000; fill-opacity:1.0;  stroke:#000000; stroke-width:0; stroke-opacity:1;  stroke-linecap:round; stroke-linejoin:round;fill-rule:evenodd;" d="M 68030.8,29499.1 68177.8,29560 68177.8,29560 68310,29648.4 68422.5,29760.9 68507.2,29887.6 68510.9,29893.1 68571.7,30040.1 68602.8,30196.1 68602.8,30355.1 68571.7,30511.1 68510.9,30658.1 68510.9,30658.1 68422.5,30790.3 68310,30902.8 68177.8,30991.2 68177.8,30991.2 68177.8,30991.2 68030.8,31052 67874.8,31083.1 67715.7,31083.1 67559.7,31052 67412.8,30991.2 67412.8,30991.2 67412.8,30991.2 67280.5,30902.8 67168.1,30790.3 67079.7,30658.1 67079.7,30658.1 67018.8,30511.1 66987.8,30355.1 66987.8,30196.1 67018.8,30040.1 67079.7,29893.1 67083.4,29887.6 67168.1,29760.9 67280.5,29648.4 67412.8,29560 67412.8,29560 67559.7,29499.1 67715.7,29468.1 67874.8,29468.1 Z"/> 
<path style="fill:#000000; fill-opacity:1.0;  stroke:#000000; stroke-width:0; stroke-opacity:1;  stroke-linecap:round; stroke-linejoin:round;fill-rule:evenodd;" d="M 55098.8,30728.7 53956.3,30728.7 53956.3,29586.2 55098.8,29586.2 Z"/> 
<path style="fill:#000000; fill-opacity:1.0;  stroke:#000000; stroke-width:0; stroke-opacity:1;  stroke-linecap:round; stroke-linejoin:round;fill-rule:evenodd;" d="M 56028.9,29292.9 56087.7,29304.6 56152.3,29331.3 56210.4,29370.1 56259.8,29419.5 56298.6,29477.6 56325.3,29542.2 56339,29610.7 56339,29680.6 56325.3,29749.1 56298.6,29813.7 56259.8,29871.8 56210.4,29921.2 56152.3,29960 56087.7,29986.8 56028.9,29998.5 56019.2,30000.4 55949.3,30000.4 55939.6,29998.5 55880.8,29986.8 55816.2,29960 55758.1,29921.2 55708.7,29871.8 55669.9,29813.7 55643.2,29749.1 55629.5,29680.6 55629.5,29610.7 55643.2,29542.2 55669.9,29477.6 55708.7,29419.5 55758.1,29370.1 55816.2,29331.3 55880.8,29304.6 55939.6,29292.9 55949.3,29290.9 56019.2,29290.9 Z"/> 
<path style="fill:#000000; fill-opacity:1.0;  stroke:#000000; stroke-width:0; stroke-opacity:1;  stroke-linecap:round; stroke-linejoin:round;fill-rule:evenodd;" d="M 65148.6,29167.5 65216.7,29195.8 65216.7,29195.8 65278,29236.7 65330.2,29288.9 65340.7,29304.6 65371.2,29350.2 65399.4,29418.3 65413.8,29490.7 65413.8,29564.4 65399.4,29636.8 65371.2,29704.9 65371.2,29704.9 65330.2,29766.2 65278,29818.4 65247.2,29839 65216.7,29859.4 65148.6,29887.6 65076.2,29902 65002.5,29902 64930.2,29887.6 64862,29859.4 64831.6,29839 64800.7,29818.4 64748.5,29766.2 64707.6,29704.9 64707.6,29704.9 64679.3,29636.8 64665,29564.4 64665,29490.7 64679.3,29418.3 64707.6,29350.2 64738.1,29304.6 64748.5,29288.9 64800.7,29236.7 64862,29195.8 64862,29195.8 64930.2,29167.5 65002.5,29153.1 65076.2,29153.1 Z"/> 
<path style="fill:#000000; fill-opacity:1.0;  stroke:#000000; stroke-width:0; stroke-opacity:1;  stroke-linecap:round; stroke-linejoin:round;fill-rule:evenodd;" d="M 65148.6,28183.3 65216.7,28211.5 65216.7,28211.5 65278,28252.5 65330.2,28304.6 65330.2,28304.6 65371.2,28366 65399.4,28434.1 65413.8,28506.4 65413.8,28580.2 65399.4,28652.5 65371.2,28720.7 65371.2,28720.7 65330.2,28782 65278,28834.1 65247.2,28854.8 65216.7,28875.1 65148.6,28903.3 65076.2,28917.7 65002.5,28917.7 64930.2,28903.3 64862,28875.1 64831.6,28854.8 64800.7,28834.1 64748.5,28782 64707.6,28720.7 64707.6,28720.7 64679.3,28652.5 64665,28580.2 64665,28506.4 64679.3,28434.1 64707.6,28366 64748.5,28304.6 64748.5,28304.6 64800.7,28252.5 64862,28211.5 64862,28211.5 64930.2,28183.3 65002.5,28168.9 65076.2,28168.9 Z"/> 
<path style="fill:#000000; fill-opacity:1.0;  stroke:#000000; stroke-width:0; stroke-opacity:1;  stroke-linecap:round; stroke-linejoin:round;fill-rule:evenodd;" d="M 61633.2,27320.4 61639.7,27321.7 61729.4,27358.8 61810,27412.7 61878.6,27481.3 61932.5,27562 61932.5,27562 61969.7,27651.6 61988.6,27746.8 61988.6,27843.8 61973.6,27919.1 61969.7,27938.9 61932.5,28028.6 61878.6,28109.2 61810,28177.8 61729.4,28231.7 61729.4,28231.7 61729.4,28231.7 61639.7,28268.9 61544.6,28287.8 61447.6,28287.8 61352.4,28268.9 61262.8,28231.7 61262.8,28231.7 61262.8,28231.7 61182.1,28177.8 61113.5,28109.2 61059.6,28028.6 61022.5,27938.9 61018.5,27919.1 61003.5,27843.8 61003.5,27746.8 61022.5,27651.6 61059.6,27562 61059.6,27562 61113.5,27481.3 61182.1,27412.7 61262.8,27358.8 61352.4,27321.7 61358.9,27320.4 61447.6,27302.8 61544.6,27302.8 Z"/> 
<path style="fill:#000000; fill-opacity:1.0;  stroke:#000000; stroke-width:0; stroke-opacity:1;  stroke-linecap:round; stroke-linejoin:round;fill-rule:evenodd;" d="M 65148.6,27199 65216.7,27227.3 65216.7,27227.3 65278,27268.2 65330.2,27320.4 65330.2,27320.4 65371.2,27381.7 65399.4,27449.8 65413.8,27522.2 65413.8,27595.9 65399.4,27668.3 65371.2,27736.4 65364.2,27746.8 65330.2,27797.7 65278,27849.9 65247.2,27870.5 65216.7,27890.9 65148.6,27919.1 65076.2,27933.5 65002.5,27933.5 64930.2,27919.1 64862,27890.9 64831.6,27870.5 64800.7,27849.9 64748.5,27797.7 64714.5,27746.8 64707.6,27736.4 64679.3,27668.3 64665,27595.9 64665,27522.2 64679.3,27449.8 64707.6,27381.7 64748.5,27320.4 64748.5,27320.4 64800.7,27268.2 64862,27227.3 64862,27227.3 64930.2,27199 65002.5,27184.6 65076.2,27184.6 Z"/> 
<path style="fill:#000000; fill-opacity:1.0;  stroke:#000000; stroke-width:0; stroke-opacity:1;  stroke-linecap:round; stroke-linejoin:round;fill-rule:evenodd;" d="M 58012.2,27697.2 56869.7,27697.2 56869.7,26790.9 58012.2,26790.9 Z"/> 
<path style="fill:#000000; fill-opacity:1.0;  stroke:#000000; stroke-width:0; stroke-opacity:1;  stroke-linecap:round; stroke-linejoin:round;fill-rule:evenodd;" d="M 68030.8,26034.6 68177.8,26095.4 68177.8,26095.4 68310,26183.8 68422.5,26296.3 68510.9,26428.5 68571.7,26575.5 68602.8,26731.5 68602.8,26890.6 68571.7,27046.6 68514.5,27184.6 68510.9,27193.5 68422.5,27325.8 68310,27438.2 68177.8,27526.6 68177.8,27526.6 68177.8,27526.6 68030.8,27587.5 67874.8,27618.5 67715.7,27618.5 67559.7,27587.5 67412.8,27526.6 67412.8,27526.6 67412.8,27526.6 67280.5,27438.2 67168.1,27325.8 67079.7,27193.5 67076,27184.6 67018.8,27046.6 66987.8,26890.6 66987.8,26731.5 67018.8,26575.5 67079.7,26428.5 67168.1,26296.3 67280.5,26183.8 67412.8,26095.4 67412.8,26095.4 67559.7,26034.6 67715.7,26003.5 67874.8,26003.5 Z"/> 
<path style="fill:#000000; fill-opacity:1.0;  stroke:#000000; stroke-width:0; stroke-opacity:1;  stroke-linecap:round; stroke-linejoin:round;fill-rule:evenodd;" d="M 56028.9,26537 56087.7,26548.7 56152.3,26575.4 56210.4,26614.2 56259.8,26663.6 56298.6,26721.7 56325.3,26786.3 56339,26854.8 56339,26924.7 56325.3,26993.2 56298.6,27057.8 56259.8,27115.9 56210.4,27165.3 56152.3,27204.1 56087.7,27230.9 56028.9,27242.5 56019.2,27244.5 55949.3,27244.5 55939.6,27242.5 55880.8,27230.9 55816.2,27204.1 55758.1,27165.3 55708.7,27115.9 55669.9,27057.8 55643.2,26993.2 55629.5,26924.7 55629.5,26854.8 55643.2,26786.3 55669.9,26721.7 55708.7,26663.6 55758.1,26614.2 55816.2,26575.4 55880.8,26548.7 55939.6,26537 55949.3,26535 56019.2,26535 Z"/> 
<path style="fill:#000000; fill-opacity:1.0;  stroke:#000000; stroke-width:0; stroke-opacity:1;  stroke-linecap:round; stroke-linejoin:round;fill-rule:evenodd;" d="M 55098.8,26909.8 53956.3,26909.8 53956.3,26003.5 55098.8,26003.5 Z"/> 
<path style="fill:#000000; fill-opacity:1.0;  stroke:#000000; stroke-width:0; stroke-opacity:1;  stroke-linecap:round; stroke-linejoin:round;fill-rule:evenodd;" d="M 61639.7,25321.7 61729.4,25358.8 61810,25412.7 61878.6,25481.3 61932.5,25562 61969.7,25651.6 61988.6,25746.8 61988.6,25843.8 61969.7,25938.9 61932.5,26028.6 61878.6,26109.2 61810,26177.8 61729.4,26231.7 61729.4,26231.7 61729.4,26231.7 61639.7,26268.9 61544.6,26287.8 61447.6,26287.8 61352.4,26268.9 61262.8,26231.7 61262.8,26231.7 61262.8,26231.7 61182.1,26177.8 61113.5,26109.2 61059.6,26028.6 61022.5,25938.9 61003.5,25843.8 61003.5,25746.8 61022.5,25651.6 61059.6,25562 61113.5,25481.3 61182.1,25412.7 61262.8,25358.8 61352.4,25321.7 61447.6,25302.8 61544.6,25302.8 Z"/> 
</g> 
<rect fill="white" height="11830" width="17736" x="53139" y="23612"/></mask></defs><g id="substrate-silk" style="fill:#f0f0f0; stroke:#f0f0f0;" mask="url(#pads-mask-silkscreen)"><g style="fill-opacity:1; stroke-opacity:1; stroke-linecap:round; stroke-linejoin:round;" transform="translate(0 0) scale(1 1)">
</g>
<g style="fill-opacity:0.0; stroke-width:-0.000393701; stroke-opacity:1; stroke-linecap:round; stroke-linejoin:round;">
</g>
<g style="fill-opacity:0.0; stroke-width:47.2441; stroke-opacity:1; stroke-linecap:round; stroke-linejoin:round;">
<path d="M65385 26566 L66935 26566 "/>
<path d="M68655 26566 L70204 26566 "/>
<path d="M65385 30519 L66935 30519 "/>
<path d="M68655 30519 L70204 30519 "/>
<path d="M65385 26566 L65385 27216 "/>
<path d="M65385 27901 L65385 28200 "/>
<path d="M65385 28886 L65385 29185 "/>
<path d="M65385 29870 L65385 30519 "/>
<path d="M70204 26566 L70204 30519 "/>
<circle cx="61496.1" cy="27795.3" r="1031.5"/> 
<path d="M61496 26763 L61496 26385 "/>
<circle cx="60708.7" cy="32913.4" r="1031.5"/> 
<path d="M61740 32913 L62118 32913 "/>
<path d="M54763 25944 L54763 25472 "/>
<path d="M54763 25472 L54960 25472 "/>
<path d="M54960 25472 L54960 24488 "/>
<path d="M54960 24488 L57007 24488 "/>
<path d="M57007 24488 L57007 25472 "/>
<path d="M57007 25472 L57204 25472 "/>
<path d="M57204 25472 L57204 26732 "/>
<path d="M57204 27755 L57204 31259 "/>
<path d="M57204 31259 L54763 31259 "/>
<path d="M54763 31259 L54763 30787 "/>
<path d="M54763 29527 L54763 26968 "/>
<path d="M54763 25944 L53976 25944 "/>
<path d="M54763 26968 L53976 26968 "/>
</g>
<g style="fill-opacity:0.0; stroke-width:59.0551; stroke-opacity:1; stroke-linecap:round; stroke-linejoin:round;">
<text x="67421.3" y="25728.3" textLength="1106.11" font-size="524.934" lengthAdjust="spacingAndGlyphs" text-anchor="middle" opacity="0">RV1</text>
<path d="M67186 25709 L67055 25522 "/>
<path d="M66961 25709 L66961 25315 L67111 25315 L67149 25334 L67168 25353 L67186 25390 L67186 25447 L67168 25484 L67149 25503 L67111 25522 L66961 25522 "/>
<path d="M67299 25315 L67430 25709 L67561 25315 "/>
<path d="M67899 25709 L67674 25709 "/>
<path d="M67786 25709 L67786 25315 L67749 25372 L67711 25409 L67674 25428 "/>
<g transform="rotate(-90 60070.9 26795.3)">
<text x="60070.9" y="26992.1" textLength="845.426" font-size="524.934" lengthAdjust="spacingAndGlyphs" text-anchor="middle" opacity="0">R2</text>
</g>
<path d="M60248 26860 L60061 26992 "/>
<path d="M60248 27085 L59855 27085 L59855 26935 L59874 26898 L59892 26879 L59930 26860 L59986 26860 L60023 26879 L60042 26898 L60061 26935 L60061 27085 "/>
<path d="M59892 26710 L59874 26692 L59855 26654 L59855 26560 L59874 26523 L59892 26504 L59930 26485 L59967 26485 L60023 26504 L60248 26729 L60248 26485 "/>
<text x="61708.7" y="31685" textLength="845.426" font-size="524.934" lengthAdjust="spacingAndGlyphs" text-anchor="middle" opacity="0">R1</text>
<path d="M61643 31666 L61511 31478 "/>
<path d="M61418 31666 L61418 31272 L61568 31272 L61605 31291 L61624 31310 L61643 31347 L61643 31403 L61624 31441 L61605 31460 L61568 31478 L61418 31478 "/>
<path d="M62017 31666 L61793 31666 "/>
<path d="M61905 31666 L61905 31272 L61868 31328 L61830 31366 L61793 31385 "/>
<text x="55984.3" y="24173.2" textLength="751.687" font-size="524.934" lengthAdjust="spacingAndGlyphs" text-anchor="middle" opacity="0">J1</text>
<path d="M55853 23760 L55853 24041 L55834 24098 L55796 24135 L55740 24154 L55703 24154 "/>
<path d="M56246 24154 L56021 24154 "/>
<path d="M56134 24154 L56134 23760 L56096 23817 L56059 23854 L56021 23873 "/>
<g>
</g>
</g> 
</g><g id="substrate-outline" style="fill:#000000; stroke:#000000;"><g style="fill-opacity:1; stroke-opacity:1; stroke-linecap:round; stroke-linejoin:round;" transform="translate(0 0) scale(1 1)">
</g>
<g style="fill-opacity:0.0; stroke-width:-0.000393701; stroke-opacity:1; stroke-linecap:round; stroke-linejoin:round;">
</g>
<g style="fill-opacity:0.0; stroke-width:19.685; stroke-opacity:1; stroke-linecap:round; stroke-linejoin:round;">
<path d="M53149 35433 L53149 23622 "/>
<path d="M55118 35433 L53149 35433 "/>
<path d="M70866 35433 L55118 35433 "/>
<path d="M70866 23622 L70866 35433 "/>
<path d="M53149 23622 L70866 23622 "/>
<g>
</g>
<g>
</g>
<g>
</g>
<g>
</g>
<g>
</g>
</g> 
</g><defs><mask id="hole-mask"><g><rect fill="white" x="53139" y="23612" width="17736" height="11830"/><polyline stroke-linecap="round" stroke="black" stroke-width="787" points="0.0 0 0.0 0" transform="translate(67795 30275) rotate(-0.0)"/><polyline stroke-linecap="round" stroke="black" stroke-width="787" points="0.0 0 0.0 0" transform="translate(67795 26811) rotate(-0.0)"/><polyline stroke-linecap="round" stroke="black" stroke-width="393" points="0.0 0 0.0 0" transform="translate(65039 29527) rotate(-0.0)"/><polyline stroke-linecap="round" stroke="black" stroke-width="393" points="0.0 0 0.0 0" transform="translate(65039 28543) rotate(-0.0)"/><polyline stroke-linecap="round" stroke="black" stroke-width="393" points="0.0 0 0.0 0" transform="translate(65039 27559) rotate(-0.0)"/><polyline stroke-linecap="round" stroke="black" stroke-width="472" points="0.0 0 0.0 0" transform="translate(61496 25795) rotate(-90.0)"/><polyline stroke-linecap="round" stroke="black" stroke-width="472" points="0.0 0 0.0 0" transform="translate(61496 27795) rotate(-90.0)"/><polyline stroke-linecap="round" stroke="black" stroke-width="472" points="0.0 0 0.0 0" transform="translate(62708 32913) rotate(-0.0)"/><polyline stroke-linecap="round" stroke="black" stroke-width="472" points="0.0 0 0.0 0" transform="translate(60708 32913) rotate(-0.0)"/><polyline stroke-linecap="round" stroke="black" stroke-width="669" points="0.0 0 0.0 0" transform="translate(55984 29645) rotate(-0.0)"/><polyline stroke-linecap="round" stroke="black" stroke-width="669" points="0.0 0 0.0 0" transform="translate(55984 26889) rotate(-0.0)"/></g></mask></defs></g><g><g id="substrate-vcut" style="fill:#bf2600; stroke:#bf2600;"><g style="fill-opacity:1; stroke-opacity:1; stroke-linecap:round; stroke-linejoin:round;" transform="translate(0 0) scale(1 1)">
</g>
<g style="fill-opacity:0.0; stroke-width:-0.000393701; stroke-opacity:1; stroke-linecap:round; stroke-linejoin:round;">
<g>
</g>
<g>
</g>
<g>
</g>
<g>
</g>
<g>
</g>
</g> 
</g></g></g><g transform="translate(-53140, -23613)" id="highlightContainer"/><g transform="translate(-53140, -23613)" id="componentContainer"/></svg>